<?xml version="1.0" encoding="UTF-8"?>
<svg version="1.1" xmlns="http://www.w3.org/2000/svg" width="504" height="396">
<path d="M0 0 C166.32 0 332.64 0 504 0 C504 130.68 504 261.36 504 396 C337.68 396 171.36 396 0 396 C0 265.32 0 134.64 0 0 Z " fill="#000000" transform="translate(0,0)"/>
<path d="M0 0 C1.49080078 0.25716797 1.49080078 0.25716797 3.01171875 0.51953125 C12.77581887 2.38107555 21.19323281 6.55970181 30 11 C30 11.66 30 12.32 30 13 C30.556875 13.2475 31.11375 13.495 31.6875 13.75 C34.42410913 15.22924818 36.67650869 16.93467439 39 19 C39 19.66 39 20.32 39 21 C39.5983667 21.11158447 40.1967334 21.22316895 40.81323242 21.33813477 C44.44004161 22.43585495 46.72713226 25.28874712 49.3125 27.9375 C49.88919434 28.52144531 50.46588867 29.10539062 51.06005859 29.70703125 C55.63445919 34.42965841 59.54646735 39.39540987 63 45 C63.54398438 45.87398437 64.08796875 46.74796875 64.6484375 47.6484375 C66 50 66 50 66.5 52.125 C66.84897363 54.10914788 66.84897363 54.10914788 68.5 55.375 C70.63927399 57.69254683 70.659511 59.93559899 71 63 C71.99 63.33 72.98 63.66 74 64 C76.06761395 68.21793246 77.57967348 72.52050867 79 77 C79.99 77 80.98 77 82 77 C82.4021875 78.485 82.4021875 78.485 82.8125 80 C84.85393679 87.08832218 87.73833998 93.67348625 90.81640625 100.359375 C92.0387651 103.08648583 93.10373742 105.82881527 94.12109375 108.63671875 C95.3596175 111.96697151 96.6802904 115.26382971 98 118.5625 C98.37402954 119.50077637 98.37402954 119.50077637 98.75561523 120.45800781 C99.99739086 123.55817051 101.27019237 126.64064638 102.6015625 129.703125 C103.65980971 132.19798713 104.5811234 134.60482351 105.375 137.1875 C107.46546804 143.62481429 109.89884058 150.16093244 113.15234375 156.10546875 C114 158 114 158 114 162 C115.32 162 116.64 162 118 162 C118.144375 161.236875 118.28875 160.47375 118.4375 159.6875 C119 157 119 157 120 154 C120.66 154 121.32 154 122 154 C122.12761719 153.27425781 122.25523437 152.54851562 122.38671875 151.80078125 C123.68326989 145.87958908 126.27438515 140.29925933 129.0625 134.9375 C130.89152695 131.40804956 132.0872096 127.82407929 133.27734375 124.0390625 C134.18843888 121.46829678 135.55264034 119.30261764 137 117 C137.69579454 114.80869466 137.69579454 114.80869466 138 113 C138.66 113 139.32 113 140 113 C140.2475 112.195625 140.495 111.39125 140.75 110.5625 C142.58392907 105.33580215 144.59811502 100.15674612 147.625 95.5 C149.34378567 92.37493515 149.81846332 89.3921683 150.375 85.890625 C150.684375 84.95476562 150.684375 84.95476562 151 84 C152.485 83.505 152.485 83.505 154 83 C154 81.68 154 80.36 154 79 C154.66 79 155.32 79 156 79 C156.25523437 78.14728516 156.25523437 78.14728516 156.515625 77.27734375 C157.74351261 73.36508482 158.99669384 69.76869595 161.125 66.25 C162.81163259 63.3265035 163.59912914 61.30718459 164 58 C164.66 58 165.32 58 166 58 C166.0825 57.319375 166.165 56.63875 166.25 55.9375 C167.03184008 52.87529301 168.34258793 50.57103687 169.96484375 47.87890625 C171.00501388 45.99089934 171.72996993 44.15864359 172.4375 42.125 C173.52458857 39.0478859 174.87186616 36.32857879 176.5 33.5 C178.4364962 30.12265841 179.89988041 26.83329497 181.1875 23.16796875 C182.51263711 19.63214618 184.1312904 16.23282551 185.71875 12.80859375 C187.199374 9.5629576 188.59472905 6.27896554 190 3 C201.88 3 213.76 3 226 3 C226 9.05292635 225.92929281 9.4433223 223 14 C222.33829421 15.85277622 221.67666252 17.70557899 221.015625 19.55859375 C219.22775167 23.85636618 216.88281137 27.86538035 214.64453125 31.94140625 C212.8674923 35.24644544 211.3797035 38.51443325 210 42 C209.608125 42.969375 209.21625 43.93875 208.8125 44.9375 C208.544375 45.618125 208.27625 46.29875 208 47 C207.34 47 206.68 47 206 47 C206 48.32 206 49.64 206 51 C205.34 51 204.68 51 204 51 C203.9175 51.845625 203.835 52.69125 203.75 53.5625 C203.02485702 56.88607198 201.86819271 59.13926677 200.10546875 62.015625 C198.8430378 64.28175547 197.92827657 66.57840895 197 69 C195.81552016 72.07778226 194.56618958 74.91882337 192.875 77.75 C190.93437527 80.86326351 190.93437527 80.86326351 190 84 C189.03726334 86.88820997 187.70995251 89.19108864 186.15234375 91.7890625 C183.62411886 96.63982618 181.88161344 101.87183223 180 107 C179.34 107 178.68 107 178 107 C178 108.32 178 109.64 178 111 C177.34 111 176.68 111 176 111 C175.88398438 111.86496094 175.76796875 112.72992188 175.6484375 113.62109375 C174.99365977 117.03303794 173.98381751 119.87133767 172.625 123.0625 C171.99464844 124.56490234 171.99464844 124.56490234 171.3515625 126.09765625 C170.06305434 128.86459719 168.57035514 131.38703202 167 134 C166.46082659 135.31797944 165.95682942 136.65126553 165.5 138 C164.32419616 141.2763284 162.82798576 144.02952315 161 147 C160.25988527 148.70548176 159.52129082 150.41178636 158.80859375 152.12890625 C157.98125853 154.04336794 157.07127597 155.89165081 156.125 157.75 C152.60168405 164.71625206 149.45774743 171.83966224 146.5 179.0625 C144.58429502 183.7192294 142.43374051 188.18595699 140.13671875 192.6640625 C138.49854958 196.03047199 137.24199537 199.47011843 136 203 C131.05 203 126.1 203 121 203 C118.99668008 198.99336016 117.74943003 196.27524219 116.65234375 192.16796875 C114.50776621 185.04077993 111.58646891 178.14180518 108.375 171.4375 C105.74572203 165.79155828 104.37517727 160.05077998 103 154 C102.36628731 151.65526306 101.68824109 149.3294314 101 147 C100.34 147 99.68 147 99 147 C96.16672718 140.25837852 93.83544748 133.87139675 92.4375 126.6875 C91.35275029 121.15956647 89.74150821 116.86891857 87 112 C85.94112399 109.6879588 84.97530942 107.34960906 84 105 C83.4121875 103.6696875 83.4121875 103.6696875 82.8125 102.3125 C82 100 82 100 82 96 C81.34 96 80.68 96 80 96 C80 94.68 80 93.36 80 92 C79.34 92 78.68 92 78 92 C78 90.35 78 88.7 78 87 C77.34 87 76.68 87 76 87 C76 85.68 76 84.36 76 83 C75.34 83 74.68 83 74 83 C74 81.68 74 80.36 74 79 C73.34 79 72.68 79 72 79 C72 77.68 72 76.36 72 75 C71.34 75 70.68 75 70 75 C68 72 68 72 68 68 C67.34 68 66.68 68 66 68 C65.4121875 66.453125 65.4121875 66.453125 64.8125 64.875 C63.64303278 62.0918929 62.32987547 60.0533915 60.3125 57.8125 C58 55 58 55 58 51 C57.34 51 56.68 51 56 51 C54.4921875 49.35546875 54.4921875 49.35546875 52.875 47.1875 C52.33617187 46.47980469 51.79734375 45.77210938 51.2421875 45.04296875 C50 43 50 43 50 40 C49.34 40 48.68 40 48 40 C48 39.34 48 38.68 48 38 C47.16275391 37.6596875 47.16275391 37.6596875 46.30859375 37.3125 C42.3773606 35.0774842 39.61129908 31.58357615 36.53515625 28.3125 C34.01688836 26.0154051 32.16108947 25.12782589 29 24 C27.31126121 22.35570171 25.64694485 20.68615782 24 19 C18.8409014 14.47749968 13.57808608 12.68153647 7 11 C5.70721405 10.62887704 4.41539168 10.25436408 3.125 9.875 C2.09375 9.58625 1.0625 9.2975 0 9 C-0.63558838 8.82114258 -1.27117676 8.64228516 -1.92602539 8.45800781 C-16.49166407 5.24139355 -33.14416714 8.05752285 -45.66015625 15.79296875 C-48 17 -48 17 -52 17 C-52 17.66 -52 18.32 -52 19 C-52.721875 19.226875 -53.44375 19.45375 -54.1875 19.6875 C-58.20913408 21.56426257 -60.69745243 24.54715848 -63.625 27.8125 C-65 29 -65 29 -68 29 C-68 29.66 -68 30.32 -68 31 C-68.66 31 -69.32 31 -70 31 C-70 31.66 -70 32.32 -70 33 C-70.66 33 -71.32 33 -72 33 C-72.061875 33.556875 -72.12375 34.11375 -72.1875 34.6875 C-73 37 -73 37 -75.3125 39.25 C-78.06995333 42.07158015 -79.34787036 44.40389999 -80.9765625 47.921875 C-81.97179231 49.94272331 -83.10656429 51.70428208 -84.375 53.5625 C-88.21461378 59.54183663 -90.53569649 66.36589262 -93 73 C-93.37511719 73.99386719 -93.75023437 74.98773438 -94.13671875 76.01171875 C-98.35921542 90.62805339 -97.07046489 110.07487855 -94.4375 124.921875 C-93.95520145 128.31518983 -93.93119763 131.5770819 -94 135 C-93.34 135 -92.68 135 -92 135 C-90.50178941 138.37097383 -90 140.20442119 -90 144 C-89.34 144 -88.68 144 -88 144 C-87.75765625 144.65226563 -87.5153125 145.30453125 -87.265625 145.9765625 C-85.30016672 151.10187293 -83.22952355 155.52033831 -80 160 C-79.58621094 160.74378906 -79.17242187 161.48757812 -78.74609375 162.25390625 C-76.53694813 165.72824488 -73.92112841 168.61589867 -71.125 171.625 C-70.60808594 172.19734375 -70.09117187 172.7696875 -69.55859375 173.359375 C-66.60535176 176.55810059 -63.87611917 178.92281427 -60 181 C-56.79243867 183.12726001 -53.7374528 185.16082957 -51.1875 188.0625 C-45.143022 193.41618051 -36.3610279 194.76695284 -28.6875 196.38671875 C-26 197 -26 197 -24 198 C-6.4510838 199.06198798 10.78618843 197.50863223 26 188 C26.66 187.34 27.32 186.68 28 186 C28.73605469 185.73445312 29.47210938 185.46890625 30.23046875 185.1953125 C33.77078425 183.6673343 36.43035387 181.37542812 39.3125 178.875 C39.86228516 178.40707031 40.41207031 177.93914062 40.97851562 177.45703125 C42.32396409 176.31047517 43.662679 175.15602549 45 174 C46.953125 174.8359375 46.953125 174.8359375 49 176 C49.75 178.625 49.75 178.625 50 181 C49.34 181 48.68 181 48 181 C48 181.66 48 182.32 48 183 C45.8828125 184.7265625 45.8828125 184.7265625 43.125 186.625 C42.22007812 187.25664062 41.31515625 187.88828125 40.3828125 188.5390625 C38 190 38 190 36 190 C35.67 190.99 35.34 191.98 35 193 C30.04759117 196.27601204 25.01058355 198.21807638 19.375 200 C18.58810791 200.25418701 17.80121582 200.50837402 16.99047852 200.77026367 C15.40481056 201.28065105 13.81799119 201.78747656 12.22998047 202.29052734 C10.23343254 202.92573298 8.24320152 203.58071441 6.25390625 204.23828125 C5.15949219 204.59277344 4.06507813 204.94726562 2.9375 205.3125 C1.52791016 205.77076172 1.52791016 205.77076172 0.08984375 206.23828125 C-16.52876934 210.33515805 -35.5274577 209.05873939 -52 205 C-52.9075 204.78730469 -53.815 204.57460938 -54.75 204.35546875 C-56.50695171 203.93148214 -58.25546342 203.47247866 -60 203 C-60 202.34 -60 201.68 -60 201 C-60.680625 201.0825 -61.36125 201.165 -62.0625 201.25 C-65.3619521 200.96919557 -67.285452 199.77533986 -70.09350586 198.10986328 C-71.89458301 197.06136837 -73.71398018 196.10644974 -75.578125 195.17578125 C-83.92491029 190.96471956 -90.98012286 186.25119494 -98 180 C-98.72832031 179.37996094 -99.45664063 178.75992188 -100.20703125 178.12109375 C-102.16840751 176.44473584 -104.0909133 174.73553336 -106 173 C-106.64066406 172.42507813 -107.28132813 171.85015625 -107.94140625 171.2578125 C-111.97334126 167.46998212 -113.96756563 164.2262598 -116 159 C-117.75808502 156.63757325 -119.60302117 154.44461629 -121.5625 152.25 C-123.79002773 148.76343485 -124.77908977 144.93120309 -126 141 C-126.47765 139.6244724 -126.95682414 138.24947314 -127.4375 136.875 C-127.96121498 135.25092642 -128.48169703 133.62580884 -129 132 C-129.53367187 130.45119141 -129.53367187 130.45119141 -130.078125 128.87109375 C-133.5794942 117.63958902 -133.59963683 106.68908134 -133 95 C-132.95915283 94.17250244 -132.91830566 93.34500488 -132.8762207 92.49243164 C-132.40079751 85.98343254 -130.71153047 80.20321231 -128.5625 74.0625 C-128.24990234 73.13115234 -127.93730469 72.19980469 -127.61523438 71.24023438 C-126.32753739 67.46970515 -125.22318423 64.33477634 -123 61 C-122.68254456 59.55110081 -122.41510894 58.09070153 -122.1875 56.625 C-121.22211331 52.00599598 -119.56621464 50.16996857 -116 47 C-114.93661572 45.6535903 -113.89726856 44.28804311 -112.875 42.91015625 C-109.00203302 37.86976419 -104.70061846 33.40364758 -100.1875 28.9375 C-99.42501953 28.16728516 -98.66253906 27.39707031 -97.87695312 26.60351562 C-97.14798828 25.87712891 -96.41902344 25.15074219 -95.66796875 24.40234375 C-95.01078857 23.74741943 -94.3536084 23.09249512 -93.67651367 22.41772461 C-92 21 -92 21 -90 21 C-90 20.34 -90 19.68 -90 19 C-87.515625 17.0546875 -87.515625 17.0546875 -84.25 14.875 C-83.18265625 14.15054688 -82.1153125 13.42609375 -81.015625 12.6796875 C-78 11 -78 11 -74 11 C-74 10.34 -74 9.68 -74 9 C-65.8973904 5.57963611 -58.00036714 2.48368931 -49.390625 0.54296875 C-46.87366118 0.01247396 -46.87366118 0.01247396 -44 -1 C-29.83991734 -3.28479421 -13.97380808 -3.13860925 0 0 Z " fill="#C4A765" transform="translate(206,87)"/>
<path d="M0 0 C11.88 0 23.76 0 36 0 C36 6.05292635 35.92929281 6.4433223 33 11 C32.33829421 12.85277622 31.67666252 14.70557899 31.015625 16.55859375 C29.22775167 20.85636618 26.88281137 24.86538035 24.64453125 28.94140625 C22.8674923 32.24644544 21.3797035 35.51443325 20 39 C19.608125 39.969375 19.21625 40.93875 18.8125 41.9375 C18.544375 42.618125 18.27625 43.29875 18 44 C17.34 44 16.68 44 16 44 C16 45.32 16 46.64 16 48 C15.34 48 14.68 48 14 48 C13.9175 48.845625 13.835 49.69125 13.75 50.5625 C13.02485702 53.88607198 11.86819271 56.13926677 10.10546875 59.015625 C8.8430378 61.28175547 7.92827657 63.57840895 7 66 C5.81552016 69.07778226 4.56618958 71.91882337 2.875 74.75 C0.93437527 77.86326351 0.93437527 77.86326351 0 81 C-0.96273666 83.88820997 -2.29004749 86.19108864 -3.84765625 88.7890625 C-6.37588114 93.63982618 -8.11838656 98.87183223 -10 104 C-10.66 104 -11.32 104 -12 104 C-12 105.32 -12 106.64 -12 108 C-12.66 108 -13.32 108 -14 108 C-14.17402344 109.29744141 -14.17402344 109.29744141 -14.3515625 110.62109375 C-15.00634023 114.03303794 -16.01618249 116.87133767 -17.375 120.0625 C-17.79523438 121.06410156 -18.21546875 122.06570312 -18.6484375 123.09765625 C-19.93694566 125.86459719 -21.42964486 128.38703202 -23 131 C-23.53917341 132.31797944 -24.04317058 133.65126553 -24.5 135 C-25.67580384 138.2763284 -27.17201424 141.02952315 -29 144 C-29.74011473 145.70548176 -30.47870918 147.41178636 -31.19140625 149.12890625 C-32.01874147 151.04336794 -32.92872403 152.89165081 -33.875 154.75 C-37.39831595 161.71625206 -40.54225257 168.83966224 -43.5 176.0625 C-45.41570498 180.7192294 -47.56625949 185.18595699 -49.86328125 189.6640625 C-51.50145042 193.03047199 -52.75800463 196.47011843 -54 200 C-58.95 200 -63.9 200 -69 200 C-71.00331992 195.99336016 -72.25056997 193.27524219 -73.34765625 189.16796875 C-75.49223379 182.04077993 -78.41353109 175.14180518 -81.625 168.4375 C-84.25427797 162.79155828 -85.62482273 157.05077998 -87 151 C-87.63371269 148.65526306 -88.31175891 146.3294314 -89 144 C-89.66 144 -90.32 144 -91 144 C-93.83327282 137.25837852 -96.16455252 130.87139675 -97.5625 123.6875 C-98.64724971 118.15956647 -100.25849179 113.86891857 -103 109 C-104.05887601 106.6879588 -105.02469058 104.34960906 -106 102 C-106.391875 101.113125 -106.78375 100.22625 -107.1875 99.3125 C-108 97 -108 97 -108 93 C-108.66 93 -109.32 93 -110 93 C-110 91.68 -110 90.36 -110 89 C-110.66 89 -111.32 89 -112 89 C-112 87.35 -112 85.7 -112 84 C-112.66 84 -113.32 84 -114 84 C-114 82.68 -114 81.36 -114 80 C-114.66 80 -115.32 80 -116 80 C-116 78.68 -116 77.36 -116 76 C-116.66 76 -117.32 76 -118 76 C-118 74.68 -118 73.36 -118 72 C-118.66 72 -119.32 72 -120 72 C-122 69 -122 69 -122 65 C-122.66 65 -123.32 65 -124 65 C-124.4125 63.989375 -124.825 62.97875 -125.25 61.9375 C-126.39156513 59.24471718 -127.68474861 56.7581509 -129.1875 54.25 C-131 51 -131 51 -131 48 C-130.01 48 -129.02 48 -128 48 C-127.67 47.01 -127.34 46.02 -127 45 C-123.57960999 47.28026001 -123.87593753 47.3867577 -123 51 C-122.505 51.45375 -122.01 51.9075 -121.5 52.375 C-119.36072601 54.69254683 -119.340489 56.93559899 -119 60 C-118.01 60.33 -117.02 60.66 -116 61 C-113.93238605 65.21793246 -112.42032652 69.52050867 -111 74 C-110.01 74 -109.02 74 -108 74 C-107.731875 74.99 -107.46375 75.98 -107.1875 77 C-105.14606321 84.08832218 -102.26166002 90.67348625 -99.18359375 97.359375 C-97.9612349 100.08648583 -96.89626258 102.82881527 -95.87890625 105.63671875 C-94.6403825 108.96697151 -93.3197096 112.26382971 -92 115.5625 C-91.75064697 116.18801758 -91.50129395 116.81353516 -91.24438477 117.45800781 C-90.00260914 120.55817051 -88.72980763 123.64064638 -87.3984375 126.703125 C-86.34019029 129.19798713 -85.4188766 131.60482351 -84.625 134.1875 C-82.53453196 140.62481429 -80.10115942 147.16093244 -76.84765625 153.10546875 C-76 155 -76 155 -76 159 C-74.68 159 -73.36 159 -72 159 C-71.855625 158.236875 -71.71125 157.47375 -71.5625 156.6875 C-71 154 -71 154 -70 151 C-69.34 151 -68.68 151 -68 151 C-67.87238281 150.27425781 -67.74476563 149.54851562 -67.61328125 148.80078125 C-66.31673011 142.87958908 -63.72561485 137.29925933 -60.9375 131.9375 C-59.10847305 128.40804956 -57.9127904 124.82407929 -56.72265625 121.0390625 C-55.81156112 118.46829678 -54.44735966 116.30261764 -53 114 C-52.30420546 111.80869466 -52.30420546 111.80869466 -52 110 C-51.34 110 -50.68 110 -50 110 C-49.7525 109.195625 -49.505 108.39125 -49.25 107.5625 C-47.41607093 102.33580215 -45.40188498 97.15674612 -42.375 92.5 C-40.65621433 89.37493515 -40.18153668 86.3921683 -39.625 82.890625 C-39.41875 82.26671875 -39.2125 81.6428125 -39 81 C-38.01 80.67 -37.02 80.34 -36 80 C-36 78.68 -36 77.36 -36 76 C-35.34 76 -34.68 76 -34 76 C-33.82984375 75.43152344 -33.6596875 74.86304688 -33.484375 74.27734375 C-32.25648739 70.36508482 -31.00330616 66.76869595 -28.875 63.25 C-27.18836741 60.3265035 -26.40087086 58.30718459 -26 55 C-25.34 55 -24.68 55 -24 55 C-23.9175 54.319375 -23.835 53.63875 -23.75 52.9375 C-22.96815992 49.87529301 -21.65741207 47.57103687 -20.03515625 44.87890625 C-18.99498612 42.99089934 -18.27003007 41.15864359 -17.5625 39.125 C-16.47541143 36.0478859 -15.12813384 33.32857879 -13.5 30.5 C-11.5635038 27.12265841 -10.10011959 23.83329497 -8.8125 20.16796875 C-7.48736289 16.63214618 -5.8687096 13.23282551 -4.28125 9.80859375 C-2.800626 6.5629576 -1.40527095 3.27896554 0 0 Z " fill="#C8AB67" transform="translate(396,90)"/>
<path d="M0 0 C0.66 0 1.32 0 2 0 C2.391875 0.680625 2.78375 1.36125 3.1875 2.0625 C7.18222675 8.53671232 12.25207573 12.52895151 19.08203125 15.76171875 C21.37064376 17.23929546 21.86844311 18.5745324 23 21 C24.64363134 21.72159424 26.31050386 22.39351421 28 23 C28.33 23.66 28.66 24.32 29 25 C31.03054705 25.83585019 33.09216868 26.46630271 35.1875 27.12109375 C35.785625 27.41113281 36.38375 27.70117188 37 28 C37.495 29.485 37.495 29.485 38 31 C39.87387216 31.80212628 39.87387216 31.80212628 42.0625 32.1875 C43.16271484 32.42533203 43.16271484 32.42533203 44.28515625 32.66796875 C44.85105469 32.77753906 45.41695312 32.88710938 46 33 C46 33.66 46 34.32 46 35 C47.423125 35.1546875 47.423125 35.1546875 48.875 35.3125 C52.91355367 35.87888253 56.69268892 37.04239263 60.5703125 38.28125 C62.99759108 39.04131068 62.99759108 39.04131068 65.53125 39.4921875 C67.95102675 39.98992639 70.06647304 40.75828988 72.375 41.625 C79.25443456 43.75361428 85.94191537 42.65782587 93 42 C98.10468658 41.78972172 102.97800943 41.96984809 108 43 C108 42.34 108 41.68 108 41 C113.94 40.505 113.94 40.505 120 40 C119.67 39.34 119.34 38.68 119 38 C117.515 38.495 117.515 38.495 116 39 C112.41066531 39.05795091 108.83653205 39.02150265 105.24804688 38.9609375 C104.13719727 38.94933594 104.13719727 38.94933594 103.00390625 38.9375 C102.33174072 38.92589844 101.6595752 38.91429687 100.96704102 38.90234375 C98.86735171 39.00658549 97.03391833 39.49093152 95 40 C92.640625 39.66015625 92.640625 39.66015625 90.25 39.0625 C89.45078125 38.86785156 88.6515625 38.67320312 87.828125 38.47265625 C87.22484375 38.31667969 86.6215625 38.16070312 86 38 C86 37.34 86 36.68 86 36 C84.62714844 36.01740234 84.62714844 36.01740234 83.2265625 36.03515625 C81.44378906 36.04869141 81.44378906 36.04869141 79.625 36.0625 C78.44164062 36.07410156 77.25828125 36.08570313 76.0390625 36.09765625 C73 36 73 36 71 35 C71 34.34 71 33.68 71 33 C70.34 33 69.68 33 69 33 C69 32.34 69 31.68 69 31 C68.05125 31.061875 67.1025 31.12375 66.125 31.1875 C65.09375 31.125625 64.0625 31.06375 63 31 C62.34 30.01 61.68 29.02 61 28 C59.34183216 27.31246699 57.67540664 26.64438717 56 26 C55.505 25.01 55.505 25.01 55 24 C52.29827738 22.30177435 49.53712851 20.74186013 46.75 19.1875 C44 17 44 17 43.125 13.75 C43.08375 12.8425 43.0425 11.935 43 11 C43.886875 11.763125 44.77375 12.52625 45.6875 13.3125 C48.32754221 15.51459128 51.02944136 17.26113641 54 19 C60.30276903 23.20659924 60.30276903 23.20659924 62.8125 26.0625 C68.856978 31.41618051 77.6389721 32.76695284 85.3125 34.38671875 C88 35 88 35 90 36 C107.5489162 37.06198798 124.78618843 35.50863223 140 26 C140.66 25.34 141.32 24.68 142 24 C142.73605469 23.73445313 143.47210938 23.46890625 144.23046875 23.1953125 C147.77078425 21.6673343 150.43035387 19.37542812 153.3125 16.875 C153.86228516 16.40707031 154.41207031 15.93914062 154.97851562 15.45703125 C156.32396409 14.31047517 157.662679 13.15602549 159 12 C160.953125 12.8359375 160.953125 12.8359375 163 14 C163.75 16.625 163.75 16.625 164 19 C163.34 19 162.68 19 162 19 C162 19.66 162 20.32 162 21 C159.8828125 22.7265625 159.8828125 22.7265625 157.125 24.625 C156.22007812 25.25664062 155.31515625 25.88828125 154.3828125 26.5390625 C152 28 152 28 150 28 C149.67 28.99 149.34 29.98 149 31 C144.04759117 34.27601204 139.01058355 36.21807638 133.375 38 C132.19466187 38.38128052 132.19466187 38.38128052 130.99047852 38.77026367 C129.40481056 39.28065105 127.81799119 39.78747656 126.22998047 40.29052734 C124.23343254 40.92573298 122.24320152 41.58071441 120.25390625 42.23828125 C119.15949219 42.59277344 118.06507813 42.94726562 116.9375 43.3125 C115.99777344 43.61800781 115.05804688 43.92351562 114.08984375 44.23828125 C97.47123066 48.33515805 78.4725423 47.05873939 62 43 C61.0925 42.78730469 60.185 42.57460938 59.25 42.35546875 C57.49304829 41.93148214 55.74453658 41.47247866 54 41 C54 40.34 54 39.68 54 39 C53.319375 39.0825 52.63875 39.165 51.9375 39.25 C48.6380479 38.96919557 46.714548 37.77533986 43.90649414 36.10986328 C42.10541699 35.06136837 40.28601982 34.10644974 38.421875 33.17578125 C30.07508971 28.96471956 23.01987714 24.25119494 16 18 C15.27167969 17.37996094 14.54335937 16.75992187 13.79296875 16.12109375 C10.46456691 13.27636025 7.22835445 10.337079 4.0625 7.3125 C3.49660156 6.77238281 2.93070312 6.23226562 2.34765625 5.67578125 C0.83632328 3.79647155 0.40542554 2.3555737 0 0 Z " fill="#988153" transform="translate(92,249)"/>
<path d="M0 0 C1.49080078 0.25716797 1.49080078 0.25716797 3.01171875 0.51953125 C12.77581887 2.38107555 21.19323281 6.55970181 30 11 C30 11.66 30 12.32 30 13 C30.556875 13.2475 31.11375 13.495 31.6875 13.75 C34.42410913 15.22924818 36.67650869 16.93467439 39 19 C39 19.66 39 20.32 39 21 C39.5983667 21.11158447 40.1967334 21.22316895 40.81323242 21.33813477 C44.43993374 22.4358223 46.72737004 25.28859952 49.3125 27.9375 C49.88774414 28.52072021 50.46298828 29.10394043 51.05566406 29.70483398 C63.26603124 42.32370723 63.26603124 42.32370723 64 49 C63.01 49.99 63.01 49.99 62 51 C61.01 51 60.02 51 59 51 C59.495 53.475 59.495 53.475 60 56 C59.34 55.67 58.68 55.34 58 55 C58 53.68 58 52.36 58 51 C57.34 51 56.68 51 56 51 C54.4921875 49.35546875 54.4921875 49.35546875 52.875 47.1875 C52.33617187 46.47980469 51.79734375 45.77210938 51.2421875 45.04296875 C50 43 50 43 50 40 C49.34 40 48.68 40 48 40 C48 39.34 48 38.68 48 38 C47.16275391 37.6596875 47.16275391 37.6596875 46.30859375 37.3125 C42.3773606 35.0774842 39.61129908 31.58357615 36.53515625 28.3125 C34.01688836 26.0154051 32.16108947 25.12782589 29 24 C27.31126121 22.35570171 25.64694485 20.68615782 24 19 C18.8409014 14.47749968 13.57808608 12.68153647 7 11 C5.70721405 10.62887704 4.41539168 10.25436408 3.125 9.875 C2.09375 9.58625 1.0625 9.2975 0 9 C-0.60811523 8.81896729 -1.21623047 8.63793457 -1.84277344 8.45141602 C-4.48678832 7.89813585 -6.93930646 7.88797503 -9.640625 7.90234375 C-11.24550781 7.90717773 -11.24550781 7.90717773 -12.8828125 7.91210938 C-13.99398437 7.92048828 -15.10515625 7.92886719 -16.25 7.9375 C-17.37664062 7.94201172 -18.50328125 7.94652344 -19.6640625 7.95117188 C-22.44276217 7.96294603 -25.22135409 7.9793916 -28 8 C-28 7.34 -28 6.68 -28 6 C-23.96203903 5.80686187 -19.92371647 5.62828559 -15.88452148 5.46289062 C-14.51195227 5.40466924 -13.1395426 5.34254509 -11.76733398 5.27636719 C-9.78936991 5.18166597 -7.81068668 5.10238634 -5.83203125 5.0234375 C-4.64327393 4.97106934 -3.4545166 4.91870117 -2.22973633 4.86474609 C0.99619632 4.99984071 3.11406821 5.60580706 6 7 C3.67459062 4.26334459 1.94458185 3.51055025 -1.5625 2.875 C-5.85826772 2.07086614 -5.85826772 2.07086614 -8 1 C-22.96985599 -0.68504942 -22.96985599 -0.68504942 -37.70703125 1.48828125 C-42.70731202 2.60418718 -47.89637187 2.704363 -53 3 C-52.67 2.34 -52.34 1.68 -52 1 C-36.0816867 -4.01132085 -16.15268306 -3.62799891 0 0 Z " fill="#AB9461" transform="translate(206,87)"/>
<path d="M0 0 C1.9375 0.75 1.9375 0.75 4 2 C4.5625 3.9375 4.5625 3.9375 5 6 C5.495 6.45375 5.99 6.9075 6.5 7.375 C8.63927399 9.69254683 8.659511 11.93559899 9 15 C9.99 15.33 10.98 15.66 12 16 C14.06761395 20.21793246 15.57967348 24.52050867 17 29 C17.99 29 18.98 29 20 29 C20.268125 29.99 20.53625 30.98 20.8125 32 C22.54230136 38.00625472 24.80697838 43.62134219 27.5 49.25 C31.37274034 57.71135085 33.95714018 65.7480646 32 75 C32.66 75 33.32 75 34 75 C34.33 74.34 34.66 73.68 35 73 C38.50444331 79.36214386 39.55271035 83.86090786 38 91 C37.67 89.68 37.34 88.36 37 87 C36.34 87 35.68 87 35 87 C35 85.02 35 83.04 35 81 C34.01 80.67 33.02 80.34 32 80 C32 79.01 32 78.02 32 77 C31.34 77 30.68 77 30 77 C29.81824219 76.32453125 29.63648438 75.6490625 29.44921875 74.953125 C29.19785156 74.06109375 28.94648438 73.1690625 28.6875 72.25 C28.44386719 71.36828125 28.20023437 70.4865625 27.94921875 69.578125 C26.96945511 66.91703857 25.6966123 65.24590714 24 63 C23.0859375 60.59765625 23.0859375 60.59765625 22.375 58.0625 C22.13523437 57.22847656 21.89546875 56.39445312 21.6484375 55.53515625 C21.00909874 53.0355728 20.48059759 50.53447218 20 48 C19.34 48 18.68 48 18 48 C18 46.68 18 45.36 18 44 C17.34 44 16.68 44 16 44 C16 42.35 16 40.7 16 39 C15.34 39 14.68 39 14 39 C14 37.68 14 36.36 14 35 C13.34 35 12.68 35 12 35 C12 33.68 12 32.36 12 31 C11.34 31 10.68 31 10 31 C10 29.68 10 28.36 10 27 C9.34 27 8.68 27 8 27 C6 24 6 24 6 20 C5.34 20 4.68 20 4 20 C3.38125 18.4840625 3.38125 18.4840625 2.75 16.9375 C1.60843487 14.24471718 0.31525139 11.7581509 -1.1875 9.25 C-3 6 -3 6 -3 3 C-2.01 3 -1.02 3 0 3 C0 2.01 0 1.02 0 0 Z " fill="#C7B078" transform="translate(268,135)"/>
<path d="M0 0 C2.52142586 2.52142586 3.20289248 4.84521359 4.4375 8.1875 C6.42226065 13.51317769 6.42226065 13.51317769 8.625 18.75 C9.67636849 21.2350528 10.55359646 23.62745896 11.375 26.1875 C13.46546804 32.62481429 15.89884058 39.16093244 19.15234375 45.10546875 C20 47 20 47 20 51 C21.32 51 22.64 51 24 51 C24.12375 50.236875 24.2475 49.47375 24.375 48.6875 C25 46 25 46 27 43 C26.39009109 46.55780196 25.4216319 49.6828589 24 53 C22.35 52.67 20.7 52.34 19 52 C16.94074319 55.08888522 16.7609626 55.70935927 16.875 59.1875 C16.91625 60.445625 16.9575 61.70375 17 63 C17.66 63 18.32 63 19 63 C19.28875 63.94875 19.5775 64.8975 19.875 65.875 C20.76825109 69.05211578 20.76825109 69.05211578 23 71 C23.26991906 73.68839385 23.08737357 76.29141936 23 79 C20.1017667 75.82574448 19.12756785 72.55629748 17.8828125 68.546875 C16.93572138 65.81455902 15.75665097 63.29110022 14.5 60.6875 C11.81865198 54.94635543 10.39901876 49.15568256 9 43 C8.36628731 40.65526306 7.68824109 38.3294314 7 36 C6.34 36 5.68 36 5 36 C2.05532446 28.7282249 -0.56006454 21.72329019 -2 14 C-1.34 14 -0.68 14 0 14 C0.33 14.99 0.66 15.98 1 17 C1.66 17.33 2.32 17.66 3 18 C3 19.98 3 21.96 3 24 C3.99 24.33 4.98 24.66 6 25 C5.76947367 17.81545101 5.76947367 17.81545101 2 12 C1.34 12 0.68 12 0 12 C0 8.04 0 4.08 0 0 Z " fill="#AE9864" transform="translate(300,198)"/>
<path d="M0 0 C0.66 0 1.32 0 2 0 C2.391875 0.680625 2.78375 1.36125 3.1875 2.0625 C7.18222675 8.53671232 12.25207573 12.52895151 19.08203125 15.76171875 C21.37064376 17.23929546 21.86844311 18.5745324 23 21 C24.64363134 21.72159424 26.31050386 22.39351421 28 23 C28.33 23.66 28.66 24.32 29 25 C31.03054705 25.83585019 33.09216868 26.46630271 35.1875 27.12109375 C35.785625 27.41113281 36.38375 27.70117188 37 28 C37.495 29.485 37.495 29.485 38 31 C39.87387216 31.80212628 39.87387216 31.80212628 42.0625 32.1875 C43.16271484 32.42533203 43.16271484 32.42533203 44.28515625 32.66796875 C44.85105469 32.77753906 45.41695312 32.88710938 46 33 C46 33.66 46 34.32 46 35 C47.423125 35.1546875 47.423125 35.1546875 48.875 35.3125 C52.91355367 35.87888253 56.69268892 37.04239263 60.5703125 38.28125 C62.95170243 39.03226239 62.95170243 39.03226239 65.25878906 39.41503906 C68.36421079 40.07772079 71.27475283 41.08060923 74.2890625 42.078125 C82.47395122 44.44231589 89.94162119 44.25624096 98.375 43.75 C99.80458756 43.68147593 101.23427775 43.61505957 102.6640625 43.55078125 C106.11089419 43.39134597 109.55547556 43.20386353 113 43 C107.77489036 48.22510964 94.30057412 46.24348654 87.25195312 46.25537109 C78.50662995 46.17647598 70.48732418 45.09122771 62 43 C61.0925 42.78730469 60.185 42.57460938 59.25 42.35546875 C57.49304829 41.93148214 55.74453658 41.47247866 54 41 C54 40.34 54 39.68 54 39 C53.319375 39.0825 52.63875 39.165 51.9375 39.25 C48.6380479 38.96919557 46.714548 37.77533986 43.90649414 36.10986328 C42.10541699 35.06136837 40.28601982 34.10644974 38.421875 33.17578125 C30.07508971 28.96471956 23.01987714 24.25119494 16 18 C15.27167969 17.37996094 14.54335937 16.75992187 13.79296875 16.12109375 C10.46456691 13.27636025 7.22835445 10.337079 4.0625 7.3125 C3.49660156 6.77238281 2.93070312 6.23226562 2.34765625 5.67578125 C0.83632328 3.79647155 0.40542554 2.3555737 0 0 Z " fill="#7F6B45" transform="translate(92,249)"/>
<path d="M0 0 C0.66 0.33 1.32 0.66 2 1 C2 2.65 2 4.3 2 6 C2.66 6 3.32 6 4 6 C4 6.99 4 7.98 4 9 C4.99 9.33 5.98 9.66 7 10 C9.69115087 16.67448132 10.4811025 22.99842453 9 30 C9.66 30 10.32 30 11 30 C11.33 29.34 11.66 28.68 12 28 C15.50444331 34.36214386 16.55271035 38.86090786 15 46 C14.67 44.68 14.34 43.36 14 42 C13.34 42 12.68 42 12 42 C12 40.02 12 38.04 12 36 C11.01 35.67 10.02 35.34 9 35 C9 34.01 9 33.02 9 32 C8.34 32 7.68 32 7 32 C6.81824219 31.32453125 6.63648438 30.6490625 6.44921875 29.953125 C6.19785156 29.06109375 5.94648438 28.1690625 5.6875 27.25 C5.44386719 26.36828125 5.20023437 25.4865625 4.94921875 24.578125 C3.97490966 21.93185339 2.75962952 20.1804105 1 18 C-0.50046344 14.18063853 -0.06729666 10.03779954 0 6 C-0.66 6 -1.32 6 -2 6 C-2 5.01 -2 4.02 -2 3 C-1.34 3 -0.68 3 0 3 C0 2.01 0 1.02 0 0 Z " fill="#C9B37C" transform="translate(291,180)"/>
<path d="M0 0 C0.886875 0.763125 1.77375 1.52625 2.6875 2.3125 C5.32754221 4.51459128 8.02944136 6.26113641 11 8 C17.30276903 12.20659924 17.30276903 12.20659924 19.8125 15.0625 C25.856978 20.41618051 34.6389721 21.76695284 42.3125 23.38671875 C45 24 45 24 47 25 C50.11784745 25.26828935 53.24683464 25.23838272 56.375 25.25 C57.72851562 25.25592163 57.72851562 25.25592163 59.109375 25.26196289 C65.28739132 25.20830354 70.78206378 24.4898774 76.6875 22.55859375 C79.24802049 21.94008964 80.5157733 22.28382359 83 23 C77.01429666 25.5239256 71.70362598 26.60830467 65.25 27.125 C63.58832052 27.27094103 61.92685054 27.419292 60.265625 27.5703125 C59.54149414 27.62977051 58.81736328 27.68922852 58.07128906 27.75048828 C55.97443952 27.95656358 55.97443952 27.95656358 53.88085938 28.5480957 C51.41263127 29.14112403 49.69733608 28.67433402 47.25 28.0625 C46.45078125 27.86785156 45.6515625 27.67320312 44.828125 27.47265625 C44.22484375 27.31667969 43.6215625 27.16070312 43 27 C43 26.34 43 25.68 43 25 C41.62714844 25.01740234 41.62714844 25.01740234 40.2265625 25.03515625 C38.44378906 25.04869141 38.44378906 25.04869141 36.625 25.0625 C34.84996094 25.07990234 34.84996094 25.07990234 33.0390625 25.09765625 C30 25 30 25 28 24 C28 23.34 28 22.68 28 22 C27.34 22 26.68 22 26 22 C26 21.34 26 20.68 26 20 C24.576875 20.0928125 24.576875 20.0928125 23.125 20.1875 C22.09375 20.125625 21.0625 20.06375 20 20 C19.34 19.01 18.68 18.02 18 17 C16.34183216 16.31246699 14.67540664 15.64438717 13 15 C12.67 14.34 12.34 13.68 12 13 C9.29827738 11.30177435 6.53712851 9.74186013 3.75 8.1875 C1 6 1 6 0.125 2.75 C0.08375 1.8425 0.0425 0.935 0 0 Z " fill="#8E7B51" transform="translate(135,260)"/>
<path d="M0 0 C0.66 0.33 1.32 0.66 2 1 C0.27147488 5.09387528 -1.51978889 9.14934333 -3.375 13.1875 C-5.17140293 17.11376987 -6.86641195 21.06586004 -8.5 25.0625 C-10.41570498 29.7192294 -12.56625949 34.18595699 -14.86328125 38.6640625 C-16.50145042 42.03047199 -17.75800463 45.47011843 -19 49 C-23.95 49 -28.9 49 -34 49 C-36.50816459 43.98367082 -37.46696161 41.33038387 -38 36 C-36.0625 36.5 -36.0625 36.5 -34 38 C-33.31209578 40.69658452 -33.18053536 43.2017019 -33 46 C-28.41182818 46.92470865 -28.41182818 46.92470865 -23.8125 46.5 C-19.7498526 43.13780905 -18.0400729 38.69627212 -17 33.6875 C-16 30 -16 30 -13.875 28.5 C-13.25625 28.335 -12.6375 28.17 -12 28 C-12 26.68 -12 25.36 -12 24 C-11.34 24 -10.68 24 -10 24 C-9.87882812 23.41992188 -9.75765625 22.83984375 -9.6328125 22.2421875 C-7.16788321 10.75182482 -7.16788321 10.75182482 -4 6 C-3.34 6 -2.68 6 -2 6 C-2 4.68 -2 3.36 -2 2 C-1.34 2 -0.68 2 0 2 C0 1.34 0 0.68 0 0 Z " fill="#8A7851" transform="translate(361,241)"/>
<path d="M0 0 C1.9375 0.6875 1.9375 0.6875 4 2 C4.75 4.625 4.75 4.625 5 7 C4.34 7 3.68 7 3 7 C3 7.66 3 8.32 3 9 C0.86659608 10.6869472 -1.23730442 12.19365914 -3.5 13.6875 C-4.10070312 14.11611328 -4.70140625 14.54472656 -5.3203125 14.98632812 C-8.87435459 17.33426444 -11.17252246 18.30466541 -15.46875 17.76953125 C-17.21671875 17.38861328 -17.21671875 17.38861328 -19 17 C-18.34 16.67 -17.68 16.34 -17 16 C-16.69521729 15.37633545 -16.39043457 14.7526709 -16.07641602 14.11010742 C-14.89834949 11.80073365 -13.82382273 10.79564279 -11.77734375 9.23828125 C-11.15666016 8.75939453 -10.53597656 8.28050781 -9.89648438 7.78710938 C-9.25001953 7.30048828 -8.60355469 6.81386719 -7.9375 6.3125 C-6.65470491 5.3297442 -5.3721407 4.34668693 -4.08984375 3.36328125 C-3.07019531 2.58339844 -2.05054688 1.80351562 -1 1 C-0.67 0.67 -0.34 0.34 0 0 Z " fill="#A48B5C" transform="translate(251,261)"/>
<path d="M0 0 C11.88 0 23.76 0 36 0 C36 6.05292635 35.92929281 6.4433223 33 11 C32.47346799 12.32308043 31.97511932 13.65759939 31.5 15 C30.33301322 18.26015354 28.90793012 21.09267791 27 24 C26 22 26 22 26.55859375 19.8359375 C26.99365234 18.61777344 26.99365234 18.61777344 27.4375 17.375 C27.86869141 16.14910156 27.86869141 16.14910156 28.30859375 14.8984375 C28.53675781 14.27195312 28.76492188 13.64546875 29 13 C29.66 13 30.32 13 31 13 C31.09087891 12.06027344 31.09087891 12.06027344 31.18359375 11.1015625 C31.26738281 10.28429687 31.35117187 9.46703125 31.4375 8.625 C31.51871094 7.81289062 31.59992188 7.00078125 31.68359375 6.1640625 C32 4 32 4 33 2 C29.31265225 1.91223815 25.62557653 1.85935397 21.9375 1.8125 C20.89916016 1.78736328 19.86082031 1.76222656 18.79101562 1.73632812 C12.73111998 1.67861483 8.29491854 1.94277247 3 5 C0.63365215 7.98907097 -0.79778366 10.39335097 -2 14 C-2.99 14 -3.98 14 -5 14 C-3.6671891 8.97632813 -2.10204056 4.9047613 0 0 Z " fill="#816F49" transform="translate(396,90)"/>
<path d="M0 0 C1.10988281 0.22945313 2.21976563 0.45890625 3.36328125 0.6953125 C9.22213061 1.95599356 14.60947286 3.36741698 20 6 C16.8248466 7.00990538 14.62659479 6.95063557 11.375 6.29296875 C10.50359375 6.11830078 9.6321875 5.94363281 8.734375 5.76367188 C7.83203125 5.57353516 6.9296875 5.38339844 6 5.1875 C5.09765625 5.00896484 4.1953125 4.83042969 3.265625 4.64648438 C-0.84442972 3.80440955 -4.24863485 2.88433735 -8 1 C-12.64633525 0.37970839 -17.31866575 0.20772154 -22 0 C-22.94359375 -0.04253906 -23.8871875 -0.08507812 -24.859375 -0.12890625 C-29.44685018 -0.23575738 -33.26289683 0.19627516 -37.70703125 1.48828125 C-42.70731202 2.60418718 -47.89637187 2.704363 -53 3 C-52.67 2.34 -52.34 1.68 -52 1 C-36.12182088 -3.99868602 -16.10916794 -3.68079719 0 0 Z " fill="#86724A" transform="translate(206,87)"/>
<path d="M0 0 C1.155 0.45375 2.31 0.9075 3.5 1.375 C7.44380367 3.20605171 10.53657537 5.38476099 14 8 C13.34 8.33 12.68 8.66 12 9 C11.0925 8.360625 10.185 7.72125 9.25 7.0625 C6.60778619 5.38571047 5.0101501 4.46310002 2 4 C2 3.34 2 2.68 2 2 C1.319375 2.061875 0.63875 2.12375 -0.0625 2.1875 C-3.823502 1.94743604 -6.56140546 0.5081555 -10 -1 C-14.76749478 -2.04030594 -19.4533441 -2.15631804 -24.3125 -2.125 C-25.44353149 -2.11992432 -25.44353149 -2.11992432 -26.59741211 -2.11474609 C-33.35076263 -2.05205984 -39.75663572 -1.64556189 -46.3125 0.125 C-49.78664771 0.94937403 -50.79980831 1.0031506 -54 0 C-37.82397532 -7.73635963 -16.17531028 -7.62986334 0 0 Z " fill="#271C0F" transform="translate(219,99)"/>
<path d="M0 0 C0.66 0.33 1.32 0.66 2 1 C1.42415568 3.38564077 0.77772405 5.66682784 0 8 C-0.165 9.010625 -0.33 10.02125 -0.5 11.0625 C-1 14 -1 14 -2 16 C-1.96605073 17.86720984 -1.93160463 19.73441208 -1.89453125 21.6015625 C-2.01233832 24.28058256 -2.53686084 26.69771572 -3.125 29.3125 C-4.14278182 34.41554497 -3.64477176 38.36851829 -2.515625 43.40625 C-1.8000179 47.00597054 -1.86195143 50.3417128 -2 54 C-2.99 54 -3.98 54 -5 54 C-7.53759912 41.61897203 -6.63117711 27.97013348 -4.6875 15.5625 C-4.56987305 14.80106689 -4.45224609 14.03963379 -4.33105469 13.25512695 C-3.49547726 8.46551591 -2.06938964 4.39962672 0 0 Z " fill="#D5BC80" transform="translate(81,156)"/>
<path d="M0 0 C0 0.33 0 0.66 0 1 C-1.8871875 1.309375 -1.8871875 1.309375 -3.8125 1.625 C-8.95938763 2.7325581 -13.03970348 5.05569416 -17.51953125 7.7578125 C-20 9 -20 9 -24 9 C-24 9.66 -24 10.32 -24 11 C-25.0828125 11.3403125 -25.0828125 11.3403125 -26.1875 11.6875 C-30.20913408 13.56426257 -32.69745243 16.54715848 -35.625 19.8125 C-37 21 -37 21 -40 21 C-40 21.66 -40 22.32 -40 23 C-40.66 23 -41.32 23 -42 23 C-42 23.66 -42 24.32 -42 25 C-42.66 25 -43.32 25 -44 25 C-44.33 26.32 -44.66 27.64 -45 29 C-45.75 27.3125 -45.75 27.3125 -46 25 C-42.98233443 20.14549452 -38.328864 16.65084916 -34 13 C-33.154375 12.236875 -32.30875 11.47375 -31.4375 10.6875 C-29 9 -29 9 -25.25 7.9375 C-23.64125 7.4734375 -23.64125 7.4734375 -22 7 C-21.67 6.01 -21.34 5.02 -21 4 C-20.01 4.33 -19.02 4.66 -18 5 C-17.67 4.01 -17.34 3.02 -17 2 C-11.23918159 0.7017874 -5.91260345 -0.25706972 0 0 Z " fill="#968255" transform="translate(178,95)"/>
<path d="M0 0 C1.51289503 0.00031716 3.0258126 0.01164445 4.53857422 0.03173828 C5.33480194 0.03456818 6.13102966 0.03739807 6.9513855 0.04031372 C9.49882935 0.05152438 12.04592383 0.07663016 14.59326172 0.10205078 C16.31851706 0.11207945 18.04377791 0.1212055 19.76904297 0.12939453 C24.00225086 0.15146656 28.23519702 0.18600212 32.46826172 0.22705078 C33.51057094 4.58484841 33.30172962 6.34237197 31.09326172 10.28955078 C29.44651366 13.27485661 28.13467592 15.87173278 27.46826172 19.22705078 C26.80826172 19.22705078 26.14826172 19.22705078 25.46826172 19.22705078 C25.36513672 19.74267578 25.26201172 20.25830078 25.15576172 20.78955078 C24.22562306 24.08731513 22.8543066 27.0933841 21.46826172 30.22705078 C20.80826172 30.22705078 20.14826172 30.22705078 19.46826172 30.22705078 C20.60917781 27.18460786 21.9205694 24.29957953 23.40576172 21.41455078 C26.55724302 15.18188143 28.54620815 8.95423827 30.46826172 2.22705078 C18.58826172 2.22705078 6.70826172 2.22705078 -5.53173828 2.22705078 C-3.53173828 0.22705078 -3.53173828 0.22705078 0 0 Z " fill="#302816" transform="translate(401.53173828125,87.77294921875)"/>
<path d="M0 0 C0.33 0 0.66 0 1 0 C1 1.65 1 3.3 1 5 C0.34 4.67 -0.32 4.34 -1 4 C-0.67 2.68 -0.34 1.36 0 0 Z M-2 5 C-1.67 5 -1.34 5 -1 5 C-0.94416708 6.4578597 -0.90641579 7.91640983 -0.875 9.375 C-0.85179688 10.18710938 -0.82859375 10.99921875 -0.8046875 11.8359375 C-0.97115509 14.53271241 -1.37249482 16.78956327 -1.96875 19.40625 C-3.41127863 26.26050096 -3.45877397 33.14350659 -3.625 40.125 C-3.66328301 41.4765848 -3.70234027 42.82814791 -3.7421875 44.1796875 C-3.83571054 47.45299391 -3.92146198 50.72630557 -4 54 C-6.45714385 50.31428423 -7.12700385 48.69726078 -7.1328125 44.3515625 C-7.13410156 43.42859375 -7.13539062 42.505625 -7.13671875 41.5546875 C-7.13285156 40.58789062 -7.12898438 39.62109375 -7.125 38.625 C-7.12886719 37.6659375 -7.13273437 36.706875 -7.13671875 35.71875 C-7.13542969 34.79320312 -7.13414063 33.86765625 -7.1328125 32.9140625 C-7.13168457 32.0679541 -7.13055664 31.2218457 -7.12939453 30.35009766 C-7.00559344 28.10158956 -6.62653416 26.15709426 -6 24 C-5.34 24 -4.68 24 -4 24 C-4.02320312 23.13117188 -4.04640625 22.26234375 -4.0703125 21.3671875 C-4.08835937 20.21476563 -4.10640625 19.06234375 -4.125 17.875 C-4.14820312 16.73804688 -4.17140625 15.60109375 -4.1953125 14.4296875 C-3.99672109 10.94242233 -3.2524801 8.2446138 -2 5 Z " fill="#D9C084" transform="translate(112,151)"/>
<path d="M0 0 C-1 2 -1 2 -3.625 3.0625 C-7.07719923 4.02144423 -10.45512157 4.51344806 -14 5 C-14.33 5.33 -14.66 5.66 -15 6 C-23.61773232 8.23604039 -32.41080947 8.18687364 -41.25 8.1875 C-42.38179687 8.1882251 -43.51359375 8.1889502 -44.6796875 8.18969727 C-52.86569772 8.13430228 -52.86569772 8.13430228 -54 7 C-56.32817964 6.63239269 -58.6618385 6.29758419 -61 6 C-61 5.67 -61 5.34 -61 5 C-60.07775635 5.00523682 -59.1555127 5.01047363 -58.20532227 5.01586914 C-54.74437825 5.03303372 -51.28348028 5.04550942 -47.82250977 5.05493164 C-46.33194255 5.05992328 -44.84138014 5.06671894 -43.35083008 5.07543945 C-31.35080112 5.14382715 -20.97358293 4.64119942 -9.59960938 0.640625 C-3.38551962 -1.44472045 -3.38551962 -1.44472045 0 0 Z " fill="#1F180C" transform="translate(223,289)"/>
<path d="M0 0 C3.68040867 2.32446864 5.2994906 4.07965475 6.3125 8.25 C6.539375 9.4875 6.76625 10.725 7 12 C7.66 12 8.32 12 9 12 C9 13.65 9 15.3 9 17 C9.66 17 10.32 17 11 17 C11.66 19.97 12.32 22.94 13 26 C13.66 26 14.32 26 15 26 C15 27.65 15 29.3 15 31 C15.66 31 16.32 31 17 31 C17 32.65 17 34.3 17 36 C17.66 36 18.32 36 19 36 C19 37.65 19 39.3 19 41 C19.66 41 20.32 41 21 41 C21 42.65 21 44.3 21 46 C21.66 46 22.32 46 23 46 C23 47.65 23 49.3 23 51 C23.66 51 24.32 51 25 51 C25 52.98 25 54.96 25 57 C22.21098773 53.71928325 20.97914273 50.50447229 19.625 46.4375 C17.13358771 39.22512328 14.13707318 32.38516315 10.796875 25.53125 C8.72778432 21.15993165 7.49127912 17.96002854 8 13 C7.01 13 6.02 13 5 13 C4.15615325 11.58957044 3.32530504 10.17135868 2.5 8.75 C2.0359375 7.96109375 1.571875 7.1721875 1.09375 6.359375 C0 4 0 4 0 0 Z " fill="#4C422B" transform="translate(280,151)"/>
<path d="M0 0 C0.66 0.66 1.32 1.32 2 2 C1.54109375 2.90621094 1.0821875 3.81242188 0.609375 4.74609375 C-2.7627797 11.4316132 -6.0348745 18.12090884 -9 25 C-9.99 25 -10.98 25 -12 25 C-12.2165625 25.8971875 -12.2165625 25.8971875 -12.4375 26.8125 C-12.8872439 28.56150404 -13.42892341 30.28677023 -14 32 C-14.66 32 -15.32 32 -16 32 C-16 33.65 -16 35.3 -16 37 C-16.66 37 -17.32 37 -18 37 C-16.86925968 32.38281034 -15.4581132 28.99241626 -12.94140625 24.90625 C-11.50854488 22.00485437 -11.06967155 19.00119341 -10.58984375 15.8203125 C-10.39519531 15.21960938 -10.20054687 14.61890625 -10 14 C-9.01 13.67 -8.02 13.34 -7 13 C-7 11.68 -7 10.36 -7 9 C-6.34 9 -5.68 9 -5 9 C-4.34 6.69 -3.68 4.38 -3 2 C-2.01 2 -1.02 2 0 2 C0 1.34 0 0.68 0 0 Z " fill="#CAB57C" transform="translate(367,157)"/>
<path d="M0 0 C1.5 1.1875 1.5 1.1875 3 3 C3.1875 5.6875 3.1875 5.6875 3 8 C3.66 8 4.32 8 5 8 C5 9.65 5 11.3 5 13 C5.66 13 6.32 13 7 13 C8.49821059 16.37097383 9 18.20442119 9 22 C9.66 22 10.32 22 11 22 C11 23.65 11 25.3 11 27 C11.66 27 12.32 27 13 27 C13 25.35 13 23.7 13 22 C13.66 22 14.32 22 15 22 C15 20.68 15 19.36 15 18 C15.66 18 16.32 18 17 18 C17 16.68 17 15.36 17 14 C17.66 14 18.32 14 19 14 C19 12.02 19 10.04 19 8 C20.32 7.34 21.64 6.68 23 6 C19.92482916 16.55808656 19.92482916 16.55808656 18 21 C17.34 21 16.68 21 16 21 C15.855625 21.5775 15.71125 22.155 15.5625 22.75 C15.04166667 24.83333333 14.52083333 26.91666667 14 29 C12.68 29 11.36 29 10 29 C9.608125 27.9275 9.21625 26.855 8.8125 25.75 C5.21840583 16.11210841 5.21840583 16.11210841 0.85546875 6.8125 C-0.25115946 4.46786306 -0.14214894 2.55868086 0 0 Z " fill="#372D1A" transform="translate(310,220)"/>
<path d="M0 0 C1.29038942 3.69971791 0.71865599 6.55814488 0.0625 10.375 C-0.95448083 17.04619153 -1.22785601 23.63073521 -1.25 30.375 C-1.25894287 31.28942871 -1.26788574 32.20385742 -1.27709961 33.14599609 C-1.25497273 38.33310243 -0.75014778 43.03275885 0.55908203 48.05688477 C1.16404553 50.72294485 1.13943791 53.28096077 1 56 C-7.37190257 43.44214615 -5.04856675 23.24379039 -3 9 C-2.24609375 6.0546875 -2.24609375 6.0546875 -1.4375 3.875 C-1.16808594 3.12992188 -0.89867188 2.38484375 -0.62109375 1.6171875 C-0.41613281 1.08351562 -0.21117188 0.54984375 0 0 Z " fill="#716241" transform="translate(77,163)"/>
<path d="M0 0 C0.33 0 0.66 0 1 0 C0.62378035 7.64979953 -1.64498035 13.1771007 -5 20 C-5.61481734 21.39117493 -6.22088286 22.78630151 -6.8125 24.1875 C-7.4003125 25.5796875 -7.4003125 25.5796875 -8 27 C-8.66 27 -9.32 27 -10 27 C-10 28.32 -10 29.64 -10 31 C-10.66 31 -11.32 31 -12 31 C-12.12375 31.9075 -12.2475 32.815 -12.375 33.75 C-12.92109677 36.58970323 -13.57263803 38.52590591 -15 41 C-16.55945072 37.88109857 -15.64552918 35.34501482 -15 32 C-14.34 31.01 -13.68 30.02 -13 29 C-12.34 29 -11.68 29 -11 29 C-11.061875 27.88625 -11.061875 27.88625 -11.125 26.75 C-10.99601866 23.91241048 -10.42948778 22.41226062 -9 20 C-8.34 20 -7.68 20 -7 20 C-6.8453125 18.205625 -6.8453125 18.205625 -6.6875 16.375 C-6.19074126 12.40093011 -4.98307576 9.50851865 -3 6 C-2.1646875 4.329375 -2.1646875 4.329375 -1.3125 2.625 C-0.879375 1.75875 -0.44625 0.8925 0 0 Z " fill="#A79061" transform="translate(422,107)"/>
<path d="M0 0 C1.9375 0.5 1.9375 0.5 4 2 C4.68790422 4.69658452 4.81946464 7.2017019 5 10 C9.58817182 10.92470865 9.58817182 10.92470865 14.1875 10.5 C16.1143406 8.9053733 16.87407056 7.61330879 18.0625 5.4375 C20 2 20 2 23 1 C21.86254321 5.1435926 20.60099519 8.99751201 19 13 C14.05 13 9.1 13 4 13 C1.49183541 7.98367082 0.53303839 5.33038387 0 0 Z " fill="#816E47" transform="translate(323,277)"/>
<path d="M0 0 C2.59395171 2.59395171 3.29880793 5.12601201 4.5625 8.5625 C5.7816847 12.5707033 5.7816847 12.5707033 8 16 C8.37477233 17.90899657 8.69995565 19.8278409 9 21.75 C9.71190624 26.28415982 9.71190624 26.28415982 10.6875 30.765625 C10.790625 31.50296875 10.89375 32.2403125 11 33 C10.34 33.66 9.68 34.32 9 35 C8.34 34.67 7.68 34.34 7 34 C6.375 31.9375 6.375 31.9375 6 30 C5.34 30 4.68 30 4 30 C3.67 28.02 3.34 26.04 3 24 C3.99 24.33 4.98 24.66 6 25 C5.76947367 17.81545101 5.76947367 17.81545101 2 12 C1.34 12 0.68 12 0 12 C0 8.04 0 4.08 0 0 Z " fill="#C1AB72" transform="translate(300,198)"/>
<path d="M0 0 C0.33 0 0.66 0 1 0 C1.05534912 0.81267334 1.11069824 1.62534668 1.16772461 2.46264648 C1.41956497 6.12127632 1.67843639 9.77937485 1.9375 13.4375 C2.02451172 14.71689453 2.11152344 15.99628906 2.20117188 17.31445312 C2.28818359 18.52939453 2.37519531 19.74433594 2.46484375 20.99609375 C2.543396 22.12200928 2.62194824 23.2479248 2.70288086 24.40795898 C2.71936688 26.92669355 2.71936688 26.92669355 4 28 C4.12375 29.175625 4.2475 30.35125 4.375 31.5625 C4.97397166 36.85817006 6.70703137 41.55016471 9.1875 46.25 C10 48 10 48 10 52 C10.66 52 11.32 52 12 52 C12 53.32 12 54.64 12 56 C12.66 56 13.32 56 14 56 C13.67 57.32 13.34 58.64 13 60 C10.52214277 56.33708062 9.51035831 53.3890815 9 49 C8.34 49 7.68 49 7 49 C5.50178941 45.62902617 5 43.79557881 5 40 C4.34 40 3.68 40 3 40 C0.75053431 26.54337491 -0.42098629 13.64307417 0 0 Z " fill="#4E4127" transform="translate(109,182)"/>
<path d="M0 0 C3.37685477 0.40522257 6.4572474 0.79044611 9.640625 2.01953125 C14.03089345 3.30087704 18.07507971 3.33948089 22.625 3.3125 C23.50929687 3.31193604 24.39359375 3.31137207 25.3046875 3.31079102 C31.39705431 3.22561812 36.86618207 2.46236778 42.6875 0.55859375 C45.24802049 -0.05991036 46.5157733 0.28382359 49 1 C43.01429666 3.5239256 37.70362598 4.60830467 31.25 5.125 C29.58832052 5.27094103 27.92685054 5.419292 26.265625 5.5703125 C25.17942871 5.65949951 25.17942871 5.65949951 24.07128906 5.75048828 C21.97443952 5.95656358 21.97443952 5.95656358 19.88085938 6.5480957 C17.41263127 7.14112403 15.69733608 6.67433402 13.25 6.0625 C12.45078125 5.86785156 11.6515625 5.67320312 10.828125 5.47265625 C9.92320312 5.23869141 9.92320312 5.23869141 9 5 C9 4.34 9 3.68 9 3 C7.88625 3.061875 6.7725 3.12375 5.625 3.1875 C4.42875 3.125625 3.2325 3.06375 2 3 C1.34 2.01 0.68 1.02 0 0 Z " fill="#7E6B46" transform="translate(169,282)"/>
<path d="M0 0 C0.66 0 1.32 0 2 0 C2.391875 0.680625 2.78375 1.36125 3.1875 2.0625 C7.18222675 8.53671232 12.25207573 12.52895151 19.08203125 15.76171875 C21.36774574 17.23742444 21.87472261 18.57594429 23 21 C23.78375 21.28875 24.5675 21.5775 25.375 21.875 C28.95155346 23.40780862 30.06975362 25.71143209 32 29 C27.8648639 27.59181852 25.02129853 25.61559254 21.6875 22.8125 C20.72714844 22.00683594 19.76679687 21.20117188 18.77734375 20.37109375 C17.86082031 19.58863281 16.94429687 18.80617188 16 18 C15.25878906 17.37222656 14.51757812 16.74445313 13.75390625 16.09765625 C10.44515102 13.25328772 7.2174474 10.32665867 4.0625 7.3125 C3.49660156 6.77238281 2.93070312 6.23226562 2.34765625 5.67578125 C0.83632328 3.79647155 0.40542554 2.3555737 0 0 Z " fill="#615134" transform="translate(92,249)"/>
<path d="M0 0 C0.845625 0.144375 1.69125 0.28875 2.5625 0.4375 C4.97292209 0.83193271 7.39075714 1.18239438 9.8125 1.5 C13 2 13 2 14 3 C20.31310518 3.98642268 26.62165538 4.29416964 33 4.5625 C33.96550781 4.60568359 34.93101562 4.64886719 35.92578125 4.69335938 C38.28374425 4.79841713 40.64179416 4.90056914 43 5 C38.46242673 7.5856383 34.42225734 7.33121706 29.3125 7.3125 C28.45205078 7.32861328 27.59160156 7.34472656 26.70507812 7.36132812 C21.38406723 7.36533793 17.01683466 6.64612674 12.03955078 4.74902344 C9.89974538 3.96318157 7.7846509 3.43948444 5.5625 2.9375 C2 2 2 2 0 0 Z " fill="#2E2414" transform="translate(163,279)"/>
<path d="M0 0 C-1.134375 0.268125 -2.26875 0.53625 -3.4375 0.8125 C-4.613125 1.204375 -5.78875 1.59625 -7 2 C-7.33 2.99 -7.66 3.98 -8 5 C-9.70703125 5.94921875 -9.70703125 5.94921875 -11.8125 6.6875 C-12.84310547 7.06455078 -12.84310547 7.06455078 -13.89453125 7.44921875 C-16 8 -16 8 -20 8 C-20.66 9.32 -21.32 10.64 -22 12 C-24.31 12 -26.62 12 -29 12 C-27.06745228 9.9754262 -25.36841312 8.57894208 -23 7 C-21.68 7 -20.36 7 -19 7 C-19 6.34 -19 5.68 -19 5 C-16.58848443 3.96520787 -14.17205531 2.9470628 -11.75 1.9375 C-11.06808594 1.64294922 -10.38617188 1.34839844 -9.68359375 1.04492188 C-5.98010605 -0.48321625 -3.8159653 -1.24129373 0 0 Z " fill="#836F4A" transform="translate(151,91)"/>
<path d="M0 0 C0.6875 1.5625 0.6875 1.5625 1 4 C0.28221708 5.69657781 -0.44236446 7.39146536 -1.234375 9.0546875 C-2.50523866 12.28371863 -2.64439017 15.56243831 -3 19 C-3.33 19.33 -3.66 19.66 -4 20 C-4.165 21.155 -4.33 22.31 -4.5 23.5 C-5 27 -5 27 -6 28 C-6.23192865 29.51469448 -6.41215238 31.03754562 -6.5625 32.5625 C-6.64628906 33.38878906 -6.73007813 34.21507812 -6.81640625 35.06640625 C-6.87699219 35.70449219 -6.93757813 36.34257812 -7 37 C-7.33 37 -7.66 37 -8 37 C-8.98684911 23.4216873 -6.4250144 12.10148344 0 0 Z " fill="#453925" transform="translate(118,145)"/>
<path d="M0 0 C3.34268368 1.67134184 3.71211368 5.35760337 4.90234375 8.75 C5.26457031 9.4925 5.62679687 10.235 6 11 C6.99 11.33 7.98 11.66 9 12 C9 13.65 9 15.3 9 17 C9.66 17 10.32 17 11 17 C11.99 20.3 12.98 23.6 14 27 C6.96981631 21.92264511 4.42255128 16.01305422 2 8 C1.608125 6.865625 1.21625 5.73125 0.8125 4.5625 C0 2 0 2 0 0 Z " fill="#887751" transform="translate(78,220)"/>
<path d="M0 0 C0.99 0.495 0.99 0.495 2 1 C2 2.32 2 3.64 2 5 C2.66 5 3.32 5 4 5 C4.36351563 5.97839844 4.36351563 5.97839844 4.734375 6.9765625 C6.69983328 12.10187293 8.77047645 16.52033831 12 21 C12.7734375 22.299375 12.7734375 22.299375 13.5625 23.625 C14.92057342 25.86877348 16.39096388 27.93123927 18 30 C16.68 30.33 15.36 30.66 14 31 C13.16180842 29.37750059 12.3295884 27.75191503 11.5 26.125 C11.0359375 25.22007812 10.571875 24.31515625 10.09375 23.3828125 C9 21 9 21 9 19 C8.34 19 7.68 19 7 19 C5.96986723 17.35178756 4.96885372 15.68496298 4 14 C3.67 14 3.34 14 3 14 C3 11.69 3 9.38 3 7 C2.34 7 1.68 7 1 7 C0.67 4.69 0.34 2.38 0 0 Z " fill="#9B885E" transform="translate(114,226)"/>
<path d="M0 0 C0.33 0 0.66 0 1 0 C1.06058594 0.85464844 1.12117188 1.70929688 1.18359375 2.58984375 C1.26738281 3.69457031 1.35117188 4.79929688 1.4375 5.9375 C1.51871094 7.03964844 1.59992188 8.14179688 1.68359375 9.27734375 C1.70418084 11.91109903 1.70418084 11.91109903 3 13 C3.93119789 18.0698552 4.08997924 22.87118304 4 28 C3.01 28 2.02 28 1 28 C-0.25406138 22.21354356 -0.11186913 16.51131884 -0.0625 10.625 C-0.05798828 9.60277344 -0.05347656 8.58054688 -0.04882812 7.52734375 C-0.037103 5.01816806 -0.02069176 2.5091151 0 0 Z " fill="#D0B77A" transform="translate(75,182)"/>
<path d="M0 0 C3.35467705 2.23645137 3.54798645 2.87579977 4.625 6.5625 C5.35352498 9.54515084 5.35352498 9.54515084 7 12 C7.04063832 13.66617115 7.042721 15.33388095 7 17 C7.66 17 8.32 17 9 17 C9.28875 17.94875 9.5775 18.8975 9.875 19.875 C10.76825109 23.05211578 10.76825109 23.05211578 13 25 C13.26991906 27.68839385 13.08737357 30.29141936 13 33 C10.10470578 29.82896347 9.12978797 26.56403903 7.88671875 22.55859375 C6.91807593 19.76361115 5.71346715 17.16793131 4.4375 14.5 C2.18658684 9.69308002 0.94051401 5.21557767 0 0 Z " fill="#81704D" transform="translate(310,244)"/>
<path d="M0 0 C0 0.33 0 0.66 0 1 C-5.28 1 -10.56 1 -16 1 C-16 1.66 -16 2.32 -16 3 C-16.8353125 3.07347656 -16.8353125 3.07347656 -17.6875 3.1484375 C-21.6730945 3.53891804 -25.44975309 4.04837751 -29.3125 5.125 C-32.78664771 5.94937403 -33.79980831 6.0031506 -37 5 C-25.00010069 -0.73908228 -13.0323444 -0.24660914 0 0 Z " fill="#3C321D" transform="translate(202,94)"/>
<path d="M0 0 C0.66 0.33 1.32 0.66 2 1 C2 2.65 2 4.3 2 6 C2.66 6 3.32 6 4 6 C6.24828052 10.49656104 6.16682272 14.07872966 6 19 C5.34 19.33 4.68 19.66 4 20 C4 17.69 4 15.38 4 13 C3.34 13.66 2.68 14.32 2 15 C-0.29013653 11.5647952 -0.17842973 10.014669 0 6 C-0.66 6 -1.32 6 -2 6 C-2 5.01 -2 4.02 -2 3 C-1.34 3 -0.68 3 0 3 C0 2.01 0 1.02 0 0 Z " fill="#DCC485" transform="translate(291,180)"/>
<path d="M0 0 C0.99 0 1.98 0 3 0 C1.37011033 5.51654965 1.37011033 5.51654965 -0.44140625 7.8828125 C-2.1593619 10.21647657 -3.09965227 12.42034261 -4.125 15.125 C-5.96202532 19.92405063 -5.96202532 19.92405063 -7 22 C-7.66 22 -8.32 22 -9 22 C-9.12375 22.94875 -9.2475 23.8975 -9.375 24.875 C-10 28 -10 28 -12 30 C-12 28.35 -12 26.7 -12 25 C-11.34 25 -10.68 25 -10 25 C-10 23.68 -10 22.36 -10 21 C-9.34 21 -8.68 21 -8 21 C-8 19.68 -8 18.36 -8 17 C-7.34 17 -6.68 17 -6 17 C-6 15.35 -6 13.7 -6 12 C-5.34 12 -4.68 12 -4 12 C-4 10.68 -4 9.36 -4 8 C-3.34 8 -2.68 8 -2 8 C-2 6.68 -2 5.36 -2 4 C-1.34 4 -0.68 4 0 4 C0 2.68 0 1.36 0 0 Z " fill="#3D3320" transform="translate(353,178)"/>
<path d="M0 0 C1.65 0 3.3 0 5 0 C5.495 0.99 5.495 0.99 6 2 C-0.13234494 3.38348655 -6.30080103 3.44097642 -12.5625 3.6875 C-14.41004883 3.77741211 -14.41004883 3.77741211 -16.29492188 3.86914062 C-17.47763672 3.91619141 -18.66035156 3.96324219 -19.87890625 4.01171875 C-20.9572876 4.05772217 -22.03566895 4.10372559 -23.14672852 4.15112305 C-26.01527748 3.99919083 -27.58233026 3.49366374 -30 2 C-7.93604651 0.37209302 -7.93604651 0.37209302 0 2 C0 1.34 0 0.68 0 0 Z " fill="#9F8555" transform="translate(200,290)"/>
<path d="M0 0 C2.39611639 0.31044024 4.79187835 0.62328358 7.1875 0.9375 C8.19780273 1.06801758 8.19780273 1.06801758 9.22851562 1.20117188 C14.61948754 1.91120232 19.66820393 2.79654762 24.8125 4.5625 C25.60269531 4.83191406 26.39289063 5.10132813 27.20703125 5.37890625 C27.79871094 5.58386719 28.39039063 5.78882813 29 6 C29 6.33 29 6.66 29 7 C13.25512528 6.22095672 13.25512528 6.22095672 6 4 C6 3.34 6 2.68 6 2 C4.35 2 2.7 2 1 2 C0.67 1.34 0.34 0.68 0 0 Z " fill="#846F48" transform="translate(140,286)"/>
<path d="M0 0 C3.63 0 7.26 0 11 0 C10.37567307 8.42841353 7.70806532 15.93790202 3 23 C2 21 2 21 2.55859375 18.8359375 C2.99365234 17.61777344 2.99365234 17.61777344 3.4375 16.375 C3.72496094 15.55773437 4.01242187 14.74046875 4.30859375 13.8984375 C4.65083984 12.95871094 4.65083984 12.95871094 5 12 C5.66 12 6.32 12 7 12 C7.06058594 11.37351562 7.12117188 10.74703125 7.18359375 10.1015625 C7.26738281 9.28429687 7.35117187 8.46703125 7.4375 7.625 C7.51871094 6.81289062 7.59992188 6.00078125 7.68359375 5.1640625 C8 3 8 3 9 1 C6.03 1 3.06 1 0 1 C0 0.67 0 0.34 0 0 Z " fill="#88764E" transform="translate(420,91)"/>
<path d="M0 0 C0.33 0 0.66 0 1 0 C1.17942163 3.94727588 1.09350689 6.5980513 -1 10 C-1.66 10 -2.32 10 -3 10 C-2.938125 11.11375 -2.938125 11.11375 -2.875 12.25 C-3.00398134 15.08758952 -3.57051222 16.58773938 -5 19 C-5.66 19 -6.32 19 -7 19 C-7 20.32 -7 21.64 -7 23 C-7.66 23 -8.32 23 -9 23 C-9.144375 23.598125 -9.28875 24.19625 -9.4375 24.8125 C-9.8872439 26.56150404 -10.42892341 28.28677023 -11 30 C-11.66 30 -12.32 30 -13 30 C-11.53503463 26.32746009 -10.06068754 22.65912472 -8.5625 19 C-8.15128906 17.989375 -7.74007813 16.97875 -7.31640625 15.9375 C-6.06025866 13.13446443 -4.58484816 10.6257079 -3 8 C-2.39732423 6.57887565 -1.83011927 5.14176366 -1.3125 3.6875 C-0.6628125 1.8621875 -0.6628125 1.8621875 0 0 Z " fill="#332A1A" transform="translate(380,204)"/>
<path d="M0 0 C2.65374257 0.95262554 3.85602277 1.54440198 5.4375 3.875 C5.9375 6.375 5.9375 6.375 5.4375 8.875 C3.0625 10.75 3.0625 10.75 0.4375 11.875 C-0.2225 11.545 -0.8825 11.215 -1.5625 10.875 C-0.5725 10.545 0.4175 10.215 1.4375 9.875 C1.4375 9.215 1.4375 8.555 1.4375 7.875 C2.0975 7.875 2.7575 7.875 3.4375 7.875 C2.7775 6.225 2.1175 4.575 1.4375 2.875 C-3.54974687 2.875 -4.46195768 4.14554228 -8.125 7.375 C-13.24305556 11.875 -13.24305556 11.875 -16.5625 11.875 C-14.98106529 10.43541153 -13.39727221 8.99841355 -11.8125 7.5625 C-10.93078125 6.76199219 -10.0490625 5.96148437 -9.140625 5.13671875 C-3.11224261 -0.15181671 -3.11224261 -0.15181671 0 0 Z " fill="#4F422D" transform="translate(252.5625,260.125)"/>
<path d="M0 0 C0 0.33 0 0.66 0 1 C-0.84594727 1.029729 -0.84594727 1.029729 -1.70898438 1.06005859 C-4.30639574 1.15631811 -6.90311103 1.26558052 -9.5 1.375 C-10.8303125 1.42140625 -10.8303125 1.42140625 -12.1875 1.46875 C-16.32311968 1.65120381 -20.20883427 1.93655951 -24.21875 3 C-27.88440313 3.96942893 -31.2242279 4.38901424 -35 4.625 C-36.134375 4.69976562 -37.26875 4.77453125 -38.4375 4.8515625 C-39.283125 4.90054688 -40.12875 4.94953125 -41 5 C-40.67 4.34 -40.34 3.68 -40 3 C-27.10568315 -1.05932197 -13.3540429 -0.12087631 0 0 Z " fill="#725F3F" transform="translate(194,85)"/>
<path d="M0 0 C0.66 0.33 1.32 0.66 2 1 C1.29138583 4.6847937 -0.3029394 7.67115036 -2 11 C-2.474375 12.134375 -2.94875 13.26875 -3.4375 14.4375 C-5.06700949 18.15278164 -6.93600224 21.51255551 -9 25 C-9.33 23.68 -9.66 22.36 -10 21 C-9.34 21 -8.68 21 -8 21 C-7.7834375 19.88625 -7.7834375 19.88625 -7.5625 18.75 C-7.09812508 16.47972261 -6.58136431 14.24240521 -6 12 C-5.34 12 -4.68 12 -4 12 C-4 10.35 -4 8.7 -4 7 C-3.34 7 -2.68 7 -2 7 C-1.855625 6.401875 -1.71125 5.80375 -1.5625 5.1875 C-1.1127561 3.43849596 -0.57107659 1.71322977 0 0 Z " fill="#E1C687" transform="translate(355,182)"/>
<path d="M0 0 C3.57431173 -0.10532042 4.73578875 0.03967948 7.82861328 2.1015625 C7.82861328 2.7615625 7.82861328 3.4215625 7.82861328 4.1015625 C6.76642578 3.93785156 5.70423828 3.77414063 4.60986328 3.60546875 C-1.14225152 2.8864544 -6.8838377 2.99406361 -12.67138672 3.0390625 C-14.33427734 3.04583008 -14.33427734 3.04583008 -16.03076172 3.05273438 C-18.74436071 3.06443092 -21.45784433 3.08082164 -24.17138672 3.1015625 C-24.17138672 2.4415625 -24.17138672 1.7815625 -24.17138672 1.1015625 C-20.65067702 0.93221533 -17.12980224 0.76657057 -13.60888672 0.6015625 C-12.61824219 0.55386719 -11.62759766 0.50617188 -10.60693359 0.45703125 C-7.07172738 0.29260305 -3.53511166 0.16534815 0 0 Z " fill="#87754D" transform="translate(202.17138671875,91.8984375)"/>
<path d="M0 0 C2.8865544 3.54258949 5.10533026 6.59360873 4.8984375 11.3203125 C4.65282959 13.55885318 4.35840105 15.77694484 4 18 C3.67 16.68 3.34 15.36 3 14 C2.34 14 1.68 14 1 14 C1 12.02 1 10.04 1 8 C0.34 8 -0.32 8 -1 8 C-1.125 2.25 -1.125 2.25 0 0 Z " fill="#CEB67D" transform="translate(302,208)"/>
<path d="M0 0 C0.66 0 1.32 0 2 0 C1.67 1.98 1.34 3.96 1 6 C0.34 6 -0.32 6 -1 6 C-1.2165625 7.0828125 -1.2165625 7.0828125 -1.4375 8.1875 C-1.95833333 10.79166667 -2.47916667 13.39583333 -3 16 C-3.66 16 -4.32 16 -5 16 C-5.2165625 16.8971875 -5.2165625 16.8971875 -5.4375 17.8125 C-5.8872439 19.56150404 -6.42892341 21.28677023 -7 23 C-7.66 23 -8.32 23 -9 23 C-9 24.65 -9 26.3 -9 28 C-9.66 28 -10.32 28 -11 28 C-9.86925968 23.38281034 -8.4581132 19.99241626 -5.94140625 15.90625 C-4.50854488 13.00485437 -4.06967155 10.00119341 -3.58984375 6.8203125 C-3.39519531 6.21960938 -3.20054687 5.61890625 -3 5 C-2.01 4.67 -1.02 4.34 0 4 C0 2.68 0 1.36 0 0 Z " fill="#9A8961" transform="translate(360,166)"/>
<path d="M0 0 C1 2 1 2 0.00390625 5.0390625 C-0.47175781 6.22242188 -0.94742187 7.40578125 -1.4375 8.625 C-2.14712891 10.40777344 -2.14712891 10.40777344 -2.87109375 12.2265625 C-3.24363281 13.14179688 -3.61617188 14.05703125 -4 15 C-4.66 15 -5.32 15 -6 15 C-6.144375 15.5775 -6.28875 16.155 -6.4375 16.75 C-6.95833333 18.83333333 -7.47916667 20.91666667 -8 23 C-9.32 22.67 -10.64 22.34 -12 22 C-11.01 22 -10.02 22 -9 22 C-9 20.02 -9 18.04 -9 16 C-8.34 16 -7.68 16 -7 16 C-7 14.68 -7 13.36 -7 12 C-6.34 12 -5.68 12 -5 12 C-5 10.68 -5 9.36 -5 8 C-4.34 8 -3.68 8 -3 8 C-3.061875 7.05125 -3.12375 6.1025 -3.1875 5.125 C-3.125625 4.09375 -3.06375 3.0625 -3 2 C-2.01 1.34 -1.02 0.68 0 0 Z " fill="#483C25" transform="translate(332,226)"/>
<path d="M0 0 C0.66 1.32 1.32 2.64 2 4 C1.05016642 5.50539661 0.08988109 7.00420347 -0.875 8.5 C-1.40867187 9.3353125 -1.94234375 10.170625 -2.4921875 11.03125 C-2.98976563 11.6809375 -3.48734375 12.330625 -4 13 C-4.66 13 -5.32 13 -6 13 C-6.66 14.65 -7.32 16.3 -8 18 C-8.33 16.68 -8.66 15.36 -9 14 C-8.34 14 -7.68 14 -7 14 C-6.9175 13.319375 -6.835 12.63875 -6.75 11.9375 C-5.77667472 8.1253093 -4.04192545 5.35929671 -2 2 C-1.34 2 -0.68 2 0 2 C0 1.34 0 0.68 0 0 Z " fill="#B09B6A" transform="translate(379,131)"/>
<path d="M0 0 C0 0.33 0 0.66 0 1 C-2.49981738 1.1698905 -4.99979601 1.33597953 -7.5 1.5 C-8.19609375 1.54769531 -8.8921875 1.59539062 -9.609375 1.64453125 C-14.41809273 1.9562074 -19.18279745 2.20944359 -24 2 C-24.66 1.34 -25.32 0.68 -26 0 C-17.96002633 -2.67999122 -8.28342328 -0.72707164 0 0 Z " fill="#A78D59" transform="translate(197,87)"/>
<path d="M0 0 C2.64942024 1.11711744 5.29436488 2.24319023 7.9375 3.375 C9.06961914 3.85066406 9.06961914 3.85066406 10.22460938 4.3359375 C15.88671875 6.7734375 15.88671875 6.7734375 17 9 C12.25 10.125 12.25 10.125 10 9 C10 8.34 10 7.68 10 7 C9.34 7 8.68 7 8 7 C8 6.34 8 5.68 8 5 C6.02 5 4.04 5 2 5 C1.34 3.35 0.68 1.7 0 0 Z " fill="#907A50" transform="translate(153,275)"/>
<path d="M0 0 C1.65 0 3.3 0 5 0 C-2.23049965 6.02541637 -11.5239856 9.61135577 -21 9 C-20.360625 8.690625 -19.72125 8.38125 -19.0625 8.0625 C-17.06389179 7.1654837 -17.06389179 7.1654837 -16 6 C-13.66702567 5.95907063 -11.33294775 5.95758277 -9 6 C-9 5.34 -9 4.68 -9 4 C-7.35 4 -5.7 4 -4 4 C-4 3.34 -4 2.68 -4 2 C-2.68 2 -1.36 2 0 2 C0 1.34 0 0.68 0 0 Z " fill="#292113" transform="translate(227,275)"/>
<path d="M0 0 C0.33 0.66 0.66 1.32 1 2 C-2.66666667 5.66666667 -6.33333333 9.33333333 -10 13 C-10.99 12.67 -11.98 12.34 -13 12 C-12.67 11.01 -12.34 10.02 -12 9 C-11.34 9 -10.68 9 -10 9 C-10 8.34 -10 7.68 -10 7 C-9.34 7 -8.68 7 -8 7 C-8 6.34 -8 5.68 -8 5 C-6.36935236 3.94228261 -4.69719127 2.94726954 -3 2 C-2.01 1.34 -1.02 0.68 0 0 Z " fill="#271E12" transform="translate(146,111)"/>
<path d="M0 0 C0.66 0 1.32 0 2 0 C2.33 0.99 2.66 1.98 3 3 C3.66 3.33 4.32 3.66 5 4 C5.59765625 6.51171875 5.59765625 6.51171875 6.0625 9.6875 C6.21847656 10.72261719 6.37445313 11.75773438 6.53515625 12.82421875 C6.68855469 13.87222656 6.84195312 14.92023438 7 16 C7.32922586 18.00068024 7.66132158 20.00089819 8 22 C2.70470388 16.70470388 1.40447816 7.13943063 0 0 Z " fill="#726444" transform="translate(298,212)"/>
<path d="M0 0 C2.54270448 2.54270448 3.28819571 4.95366212 4.5625 8.3125 C4.99691406 9.44300781 5.43132812 10.57351562 5.87890625 11.73828125 C6.83087096 14.50793466 7.51877933 17.11808295 8 20 C6 19 6 19 4.5625 16 C3.29136173 12.71082942 3.29136173 12.71082942 0 12 C0 8.04 0 4.08 0 0 Z " fill="#A29064" transform="translate(300,198)"/>
<path d="M0 0 C-1 2 -1 2 -3.6328125 3.0859375 C-7.1093372 4.02968086 -10.28361449 4.40511925 -13.875 4.625 C-15.02742187 4.69976562 -16.17984375 4.77453125 -17.3671875 4.8515625 C-18.23601562 4.90054687 -19.10484375 4.94953125 -20 5 C-17.30621211 2.30621211 -14.77425019 1.86327163 -11.125 0.8125 C-9.89007813 0.44769531 -8.65515625 0.08289063 -7.3828125 -0.29296875 C-4.31094495 -0.93501035 -2.85642008 -1.12677877 0 0 Z " fill="#362A17" transform="translate(223,289)"/>
<path d="M0 0 C0 3.10810285 -0.39524428 4.09596307 -1.8125 6.75 C-3.7316019 10.43795384 -5.40123319 14.16295965 -7 18 C-7.33 18 -7.66 18 -8 18 C-8.33 16.02 -8.66 14.04 -9 12 C-8.01 12 -7.02 12 -6 12 C-6 10.35 -6 8.7 -6 7 C-5.34 7 -4.68 7 -4 7 C-4 5.68 -4 4.36 -4 3 C-2 1.25 -2 1.25 0 0 Z " fill="#99895E" transform="translate(371,223)"/>
<path d="M0 0 C1.22419163 3.93795909 0.48320272 6.16112237 -1 10 C-1.66 10 -2.32 10 -3 10 C-3.103125 10.515625 -3.20625 11.03125 -3.3125 11.5625 C-4.24263866 14.86026435 -5.61395512 17.86633332 -7 21 C-7.66 21 -8.32 21 -9 21 C-7.09718835 13.30529677 -4.00712657 6.82119281 0 0 Z " fill="#4C4028" transform="translate(402,157)"/>
<path d="M0 0 C0.99 0.495 0.99 0.495 2 1 C2.7013284 3.32315031 3.36485174 5.65789079 4 8 C4.37125 8.721875 4.7425 9.44375 5.125 10.1875 C6 12 6 12 6 16 C6.66 16 7.32 16 8 16 C8 17.32 8 18.64 8 20 C8.66 20 9.32 20 10 20 C9.67 21.32 9.34 22.64 9 24 C6.52214277 20.33708062 5.51035831 17.3890815 5 13 C4.34 13 3.68 13 3 13 C0.96834048 8.66579301 0.47939368 4.71403788 0 0 Z " fill="#3A2F1D" transform="translate(113,218)"/>
<path d="M0 0 C2.8125 0.1875 2.8125 0.1875 6 1 C7.5625 3.375 7.5625 3.375 9 6 C10.64333504 7.03789581 12.31243867 8.03567924 14 9 C15.7041054 10.62836738 17.38025441 12.28769752 19 14 C18.67 14.66 18.34 15.32 18 16 C17.55269531 15.51789063 17.10539062 15.03578125 16.64453125 14.5390625 C13.21602312 10.95703908 10.69053777 8.72809286 6 7 C1.41666667 2.83333333 1.41666667 2.83333333 0 0 Z " fill="#716042" transform="translate(229,104)"/>
<path d="M0 0 C3.08667199 1.157502 6.01000458 2.49410984 8.9375 4 C12.2136811 5.66606553 15.47152899 6.9414587 19 8 C19 8.66 19 9.32 19 10 C15.0507432 9.44894091 11.65079826 8.61064629 8 7 C8 6.34 8 5.68 8 5 C5.36 4.34 2.72 3.68 0 3 C0 2.01 0 1.02 0 0 Z " fill="#352717" transform="translate(127,280)"/>
<path d="M0 0 C1 2 1 2 0.14453125 4.79296875 C-2.21444075 10.80454255 -4.56204179 16.52473321 -8 22 C-8.70703125 20.4375 -8.70703125 20.4375 -9 18 C-7.98874214 15.54284624 -6.94401618 13.32346125 -5.6875 11 C-5.36587891 10.38382812 -5.04425781 9.76765625 -4.71289062 9.1328125 C-3.81665659 7.41763772 -2.90870217 5.70860186 -2 4 C-1.32821992 2.66923565 -0.65863067 1.33732115 0 0 Z " fill="#2C2417" transform="translate(351,268)"/>
<path d="M0 0 C0.66 0.33 1.32 0.66 2 1 C1.26380618 2.70663114 0.5268783 4.41295172 -0.21484375 6.1171875 C-0.85649581 7.65587553 -1.4103114 9.23093419 -1.9375 10.8125 C-3.21441825 13.44144934 -4.30327815 14.01120199 -7 15 C-6.5020163 11.26512223 -6.12508244 9.18762365 -4 6 C-3.34 6 -2.68 6 -2 6 C-2 4.68 -2 3.36 -2 2 C-1.34 2 -0.68 2 0 2 C0 1.34 0 0.68 0 0 Z " fill="#A28E5D" transform="translate(361,241)"/>
<path d="M0 0 C-0.556875 0.268125 -1.11375 0.53625 -1.6875 0.8125 C-4.19712523 2.10122647 -6.59334236 3.52926478 -9 5 C-9 4.01 -9 3.02 -9 2 C-5.86501708 0.14223235 -3.62528568 -0.20140476 0 0 Z M-11 5 C-10.34 5.33 -9.68 5.66 -9 6 C-9.99 8.31 -10.98 10.62 -12 13 C-12.99 13 -13.98 13 -15 13 C-14.40138258 10.64828869 -13.73075648 8.3140622 -13 6 C-12.34 5.67 -11.68 5.34 -11 5 Z " fill="#998555" transform="translate(406,91)"/>
<path d="M0 0 C1.9375 0.5 1.9375 0.5 4 2 C4.68790422 4.69658452 4.81946464 7.2017019 5 10 C6.65 10.33 8.3 10.66 10 11 C10 11.33 10 11.66 10 12 C7.75 12.3125 7.75 12.3125 5 12 C1.08617223 8.41232454 0.40712823 5.19088499 0 0 Z " fill="#927C53" transform="translate(323,277)"/>
<path d="M0 0 C1.21816406 0.03480469 1.21816406 0.03480469 2.4609375 0.0703125 C3.68683594 0.09738281 3.68683594 0.09738281 4.9375 0.125 C5.87722656 0.15980469 5.87722656 0.15980469 6.8359375 0.1953125 C5.2146521 3.43788331 2.01931966 4.72655691 -1.1640625 6.1953125 C-4.6015625 6.9453125 -4.6015625 6.9453125 -7.1640625 7.1953125 C-6.8340625 6.5353125 -6.5040625 5.8753125 -6.1640625 5.1953125 C-5.1740625 5.1953125 -4.1840625 5.1953125 -3.1640625 5.1953125 C-3.4940625 4.2053125 -3.8240625 3.2153125 -4.1640625 2.1953125 C-2.1640625 0.1953125 -2.1640625 0.1953125 0 0 Z " fill="#856F47" transform="translate(235.1640625,277.8046875)"/>
<path d="M0 0 C0.33 0.66 0.66 1.32 1 2 C0.0390625 4.53125 0.0390625 4.53125 -1.375 7.5 C-1.83648437 8.4796875 -2.29796875 9.459375 -2.7734375 10.46875 C-3.50730438 11.98322687 -4.24737781 13.49475562 -5 15 C-5.66 15 -6.32 15 -7 15 C-7.33 16.32 -7.66 17.64 -8 19 C-8 17.35 -8 15.7 -8 14 C-7.34 14 -6.68 14 -6 14 C-6 12.68 -6 11.36 -6 10 C-5.34 10 -4.68 10 -4 10 C-4 8.35 -4 6.7 -4 5 C-3.34 5 -2.68 5 -2 5 C-2 3.68 -2 2.36 -2 1 C-1.34 0.67 -0.68 0.34 0 0 Z " fill="#3B321E" transform="translate(367,151)"/>
<path d="M0 0 C1 3 1 3 0.07421875 5.0859375 C-0.38339844 5.84132813 -0.84101563 6.59671875 -1.3125 7.375 C-3.1613237 10.5231359 -4.77444825 13.54617235 -6 17 C-7.43088528 14.13822943 -6.59991697 12.06624227 -6 9 C-5.34 9 -4.68 9 -4 9 C-4 7.68 -4 6.36 -4 5 C-3.34 5 -2.68 5 -2 5 C-2 3.68 -2 2.36 -2 1 C-1.34 0.67 -0.68 0.34 0 0 Z " fill="#3E3220" transform="translate(383,117)"/>
<path d="M0 0 C0 0.99 0 1.98 0 3 C-4.03328438 6.44978893 -8.91781973 8.60240043 -14 10 C-13 8 -13 8 -10 7 C-8.31237149 5.3545622 -6.6459651 3.68711423 -5 2 C-2 0 -2 0 0 0 Z " fill="#3D311F" transform="translate(251,272)"/>
<path d="M0 0 C2.51188424 1.25594212 2.7290468 2.2307971 3.875 4.75 C5.54036468 8.23098784 7.44573104 11.08083548 10 14 C8.68 14.33 7.36 14.66 6 15 C5.17988688 13.44148245 4.36923787 11.87798284 3.5625 10.3125 C3.11003906 9.44238281 2.65757813 8.57226562 2.19140625 7.67578125 C1.04008072 5.09001736 0.43679247 2.78643472 0 0 Z " fill="#958258" transform="translate(122,242)"/>
<path d="M0 0 C0.66 0.33 1.32 0.66 2 1 C2.20674944 6.78898419 1.59162079 11.42932723 0 17 C-0.33 17 -0.66 17 -1 17 C-1.18451025 5.47835991 -1.18451025 5.47835991 0 0 Z " fill="#E3CA88" transform="translate(77,171)"/>
<path d="M0 0 C4.36240271 2.82966662 5.92115055 5.46426206 7.6171875 10.1953125 C8 12 8 12 7 14 C6.34 13.67 5.68 13.34 5 13 C4.40494001 10.95475679 4.04533219 8.90666043 3.66015625 6.8125 C3.44230469 6.214375 3.22445313 5.61625 3 5 C2.01 4.67 1.02 4.34 0 4 C0 2.68 0 1.36 0 0 Z " fill="#625538" transform="translate(272,137)"/>
<path d="M0 0 C0.66 0.33 1.32 0.66 2 1 C1.67 2.98 1.34 4.96 1 7 C0.34 7 -0.32 7 -1 7 C-1.12375 7.9075 -1.2475 8.815 -1.375 9.75 C-1.92109677 12.58970323 -2.57263803 14.52590591 -4 17 C-5.55945072 13.88109857 -4.64552918 11.34501482 -4 8 C-3.34 7.01 -2.68 6.02 -2 5 C-1.34 5 -0.68 5 0 5 C0 3.35 0 1.7 0 0 Z " fill="#AB9669" transform="translate(411,131)"/>
<path d="M0 0 C7.68486945 0.1423124 12.05278359 3.33241007 18 8 C17.01 8.495 17.01 8.495 16 9 C15.0925 8.360625 14.185 7.72125 13.25 7.0625 C10.60778619 5.38571047 9.0101501 4.46310002 6 4 C6 3.34 6 2.68 6 2 C4.35 2 2.7 2 1 2 C0.67 1.34 0.34 0.68 0 0 Z " fill="#2E2314" transform="translate(215,99)"/>
<path d="M0 0 C6.93 0.495 6.93 0.495 14 1 C14 1.66 14 2.32 14 3 C8.06 3.495 8.06 3.495 2 4 C1.34 2.68 0.68 1.36 0 0 Z " fill="#2E2513" transform="translate(326,289)"/>
<path d="M0 0 C0.66 0 1.32 0 2 0 C2.433125 1.423125 2.433125 1.423125 2.875 2.875 C3.76825109 6.05211578 3.76825109 6.05211578 6 8 C6.26991906 10.68839385 6.08737357 13.29141936 6 16 C3.19821938 12.7665725 2.25875825 9.89551231 1.3125 5.75 C1.06113281 4.67234375 0.80976563 3.5946875 0.55078125 2.484375 C0.36902344 1.66453125 0.18726563 0.8446875 0 0 Z " fill="#947E55" transform="translate(317,261)"/>
<path d="M0 0 C3.81052142 1.90526071 4.65261705 7.15112328 6 11 C6.76547408 13.6578961 7.39955055 16.29797748 8 19 C4.71569479 16.81046319 4.50085308 16.32286636 3.4375 12.75 C3.19257812 11.94949219 2.94765625 11.14898437 2.6953125 10.32421875 C2.46585937 9.55722656 2.23640625 8.79023438 2 8 C1.608125 6.865625 1.21625 5.73125 0.8125 4.5625 C0 2 0 2 0 0 Z " fill="#564A2F" transform="translate(78,220)"/>
<path d="M0 0 C0.99 0 1.98 0 3 0 C2.71382813 0.69480469 2.42765625 1.38960937 2.1328125 2.10546875 C0.94269408 5.1464265 -0.10263453 8.21132475 -1.125 11.3125 C-1.47820312 12.38113281 -1.83140625 13.44976562 -2.1953125 14.55078125 C-2.59363281 15.76314453 -2.59363281 15.76314453 -3 17 C-3.33 17 -3.66 17 -4 17 C-4 14.69 -4 12.38 -4 10 C-3.34 10 -2.68 10 -2 10 C-2 8.02 -2 6.04 -2 4 C-1.34 4 -0.68 4 0 4 C0 2.68 0 1.36 0 0 Z " fill="#342A18" transform="translate(81,146)"/>
<path d="M0 0 C0.33 0 0.66 0 1 0 C1.66 5.94 2.32 11.88 3 18 C2.34 18.33 1.68 18.66 1 19 C-0.26582219 15.13276369 -0.1118765 11.26848738 -0.0625 7.25 C-0.05798828 6.55261719 -0.05347656 5.85523438 -0.04882812 5.13671875 C-0.0371002 3.42444197 -0.01916653 1.71220967 0 0 Z " fill="#A89568" transform="translate(109,201)"/>
<path d="M0 0 C0.66 0 1.32 0 2 0 C2.70088156 1.74468372 3.38524009 3.49601161 4.0625 5.25 C4.44535156 6.22453125 4.82820313 7.1990625 5.22265625 8.203125 C6.01113787 11.04007395 6.02437812 12.29409552 5 15 C3.5393715 12.35261084 3 11.10551666 3 8 C2.34 8 1.68 8 1 8 C0.67 5.36 0.34 2.72 0 0 Z " fill="#4B4228" transform="translate(286,183)"/>
<path d="M0 0 C2.4375 1.4375 2.4375 1.4375 5 4 C5.73151889 6.99304558 5.92773687 9.92553213 6 13 C0 5.28571429 0 5.28571429 0 0 Z " fill="#625739" transform="translate(280,151)"/>
<path d="M0 0 C0.99 0 1.98 0 3 0 C2.67 1.65 2.34 3.3 2 5 C1.34 5 0.68 5 0 5 C-0.12375 5.78375 -0.2475 6.5675 -0.375 7.375 C-1 10 -1 10 -3 12 C-2.40075776 7.80530429 -1.42500059 3.99000166 0 0 Z " fill="#A49262" transform="translate(81,151)"/>
<path d="M0 0 C1.32 0.33 2.64 0.66 4 1 C2.73608512 2.00873016 1.46359117 3.00671822 0.1875 4 C-0.87404297 4.8353125 -0.87404297 4.8353125 -1.95703125 5.6875 C-4 7 -4 7 -7 7 C-6.3125 5.0625 -6.3125 5.0625 -5 3 C-2.375 2.25 -2.375 2.25 0 2 C0 1.34 0 0.68 0 0 Z " fill="#372D19" transform="translate(154,104)"/>
<path d="M0 0 C2.29284618 2.29284618 2.6796154 3.72933756 3.5625 6.8125 C3.81128906 7.66457031 4.06007813 8.51664063 4.31640625 9.39453125 C4.9783024 11.91730116 5.51695281 14.43754969 6 17 C1.74735599 12.34234228 0 6.18257992 0 0 Z " fill="#423622" transform="translate(306,234)"/>
<path d="M0 0 C0.66 0.33 1.32 0.66 2 1 C1.57476184 2.60746056 1.13429874 4.21089836 0.6875 5.8125 C0.44386719 6.70582031 0.20023437 7.59914062 -0.05078125 8.51953125 C-1.0200819 11.05247738 -1.95009604 12.2716496 -4 14 C-4 12.02 -4 10.04 -4 8 C-3.34 8 -2.68 8 -2 8 C-2 6.68 -2 5.36 -2 4 C-1.34 4 -0.68 4 0 4 C0 2.68 0 1.36 0 0 Z " fill="#3A301C" transform="translate(337,212)"/>
<path d="M0 0 C0.33 0 0.66 0 1 0 C1 1.98 1 3.96 1 6 C-0.98 6.99 -0.98 6.99 -3 8 C-3 9.32 -3 10.64 -3 12 C-3.66 12 -4.32 12 -5 12 C-4.67 10.02 -4.34 8.04 -4 6 C-3.34 6 -2.68 6 -2 6 C-2 4.68 -2 3.36 -2 2 C-1.34 2 -0.68 2 0 2 C0 1.34 0 0.68 0 0 Z " fill="#443B25" transform="translate(386,192)"/>
<path d="M0 0 C0.99 0.495 0.99 0.495 2 1 C2 1.66 2 2.32 2 3 C2.66 3 3.32 3 4 3 C4.28875 3.7425 4.5775 4.485 4.875 5.25 C5.82302644 7.56739797 6.84845911 9.77917115 8 12 C7.01 12 6.02 12 5 12 C5 11.01 5 10.02 5 9 C4.34 9 3.68 9 3 9 C3 7.68 3 6.36 3 5 C2.01 4.67 1.02 4.34 0 4 C0 2.68 0 1.36 0 0 Z " fill="#433723" transform="translate(260,135)"/>
<path d="M0 0 C1.98 0 3.96 0 6 0 C1.94191935 2.7053871 -2.04889399 5 -7 5 C-7 5.66 -7 6.32 -7 7 C-7.66 6.67 -8.32 6.34 -9 6 C-8.67 5.34 -8.34 4.68 -8 4 C-7.34 4 -6.68 4 -6 4 C-6 3.34 -6 2.68 -6 2 C-4.02 2 -2.04 2 0 2 C0 1.34 0 0.68 0 0 Z " fill="#291E10" transform="translate(139,91)"/>
<path d="M0 0 C3.06081203 2.75473082 4.89882863 4.99574049 6 9 C5.625 11.3125 5.625 11.3125 5 13 C3 10 3 10 3 7 C2.34 7 1.68 7 1 7 C0.67 4.69 0.34 2.38 0 0 Z " fill="#5A4C32" transform="translate(292,198)"/>
<path d="M0 0 C0.66 0 1.32 0 2 0 C2 1.65 2 3.3 2 5 C2.66 5 3.32 5 4 5 C4 6.65 4 8.3 4 10 C4.66 10 5.32 10 6 10 C6 11.98 6 13.96 6 16 C3.19821938 12.7665725 2.25875825 9.89551231 1.3125 5.75 C1.06113281 4.67234375 0.80976563 3.5946875 0.55078125 2.484375 C0.36902344 1.66453125 0.18726563 0.8446875 0 0 Z " fill="#352C1C" transform="translate(299,192)"/>
<path d="M0 0 C0.66 0.33 1.32 0.66 2 1 C2.40729228 3.32156597 2.74438677 5.6568787 3 8 C2.01 8.66 1.02 9.32 0 10 C0 8.68 0 7.36 0 6 C-0.66 6 -1.32 6 -2 6 C-2 5.01 -2 4.02 -2 3 C-1.34 3 -0.68 3 0 3 C0 2.01 0 1.02 0 0 Z " fill="#E2CC89" transform="translate(291,180)"/>
<path d="M0 0 C0.66 0 1.32 0 2 0 C1.32116957 3.11547441 0.25893098 5.85137721 -1.0625 8.75 C-1.60583984 9.94882813 -1.60583984 9.94882813 -2.16015625 11.171875 C-2.43730469 11.77515625 -2.71445312 12.3784375 -3 13 C-3.33 13 -3.66 13 -4 13 C-4.22036864 9.14354879 -3.60355101 6.50776784 -2 3 C-1.34 3 -0.68 3 0 3 C0 2.01 0 1.02 0 0 Z " fill="#DDC688" transform="translate(361,169)"/>
<path d="M0 0 C2.31323995 3.46985992 2.03975162 4.98288704 1.42578125 8.9921875 C0.89999623 11.47157739 0.07459989 13.70752024 -1 16 C-1.33 16 -1.66 16 -2 16 C-2 13.69 -2 11.38 -2 9 C-1.34 9 -0.68 9 0 9 C0 6.03 0 3.06 0 0 Z " fill="#BBA571" transform="translate(113,147)"/>
<path d="M0 0 C0 3.38023517 -0.87455622 5.83468937 -2 9 C-2.99 9 -3.98 9 -5 9 C-5.33 9.99 -5.66 10.98 -6 12 C-7 10 -7 10 -6.875 8.1875 C-5.62098471 5.05246177 -3.45159248 3.26772304 -1 1 C-0.67 0.67 -0.34 0.34 0 0 Z " fill="#6C5F3F" transform="translate(91,133)"/>
<path d="M0 0 C0.6875 1.625 0.6875 1.625 1 4 C0.0337499 6.01652194 -0.96708324 8.01679982 -2 10 C-2 11.32 -2 12.64 -2 14 C-3.32 14.33 -4.64 14.66 -6 15 C-4.36041242 9.76727367 -2.61047965 4.84803364 0 0 Z " fill="#948157" transform="translate(390,104)"/>
<path d="M0 0 C0.66 0.33 1.32 0.66 2 1 C1.67 1.99 1.34 2.98 1 4 C0.34 4 -0.32 4 -1 4 C-1 4.66 -1 5.32 -1 6 C-3.90600261 7.25664978 -5.79604584 8 -9 8 C-7.625 6.5 -7.625 6.5 -6 5 C-5.34 5 -4.68 5 -4 5 C-4 4.34 -4 3.68 -4 3 C-2 1.375 -2 1.375 0 0 Z " fill="#83754C" transform="translate(120,103)"/>
<path d="M0 0 C6.625 -0.25 6.625 -0.25 10 2 C10 2.66 10 3.32 10 4 C7.36 3.67 4.72 3.34 2 3 C2 2.34 2 1.68 2 1 C1.34 0.67 0.68 0.34 0 0 Z " fill="#917B51" transform="translate(200,92)"/>
<path d="M0 0 C0.66 0.33 1.32 0.66 2 1 C1.01 2.485 1.01 2.485 0 4 C-0.66 4 -1.32 4 -2 4 C-2.33 4.99 -2.66 5.98 -3 7 C-4.98 7 -6.96 7 -9 7 C-6.3765992 4.08511023 -3.28183606 2.11496102 0 0 Z " fill="#84704A" transform="translate(234,273)"/>
<path d="M0 0 C1.18771723 3.42943519 0.80226223 5.37784675 -0.4375 8.75 C-0.72496094 9.54921875 -1.01242187 10.3484375 -1.30859375 11.171875 C-1.53675781 11.77515625 -1.76492188 12.3784375 -2 13 C-2.99 13 -3.98 13 -5 13 C-4.54554036 11.58208592 -4.08625056 10.16571954 -3.625 8.75 C-3.24214844 7.56664062 -3.24214844 7.56664062 -2.8515625 6.359375 C-2.04826333 4.13372042 -1.10288338 2.09068328 0 0 Z " fill="#907E56" transform="translate(341,208)"/>
<path d="M0 0 C0.99 0 1.98 0 3 0 C2.54554036 1.41791408 2.08625056 2.83428046 1.625 4.25 C1.36976563 5.03890625 1.11453125 5.8278125 0.8515625 6.640625 C0.04826333 8.86627958 -0.89711662 10.90931672 -2 13 C-3.43088528 10.13822943 -2.59991697 8.06624227 -2 5 C-1.34 5 -0.68 5 0 5 C-0.2784375 4.0409375 -0.2784375 4.0409375 -0.5625 3.0625 C-0.706875 2.381875 -0.85125 1.70125 -1 1 C-0.67 0.67 -0.34 0.34 0 0 Z " fill="#B19B6C" transform="translate(403,148)"/>
<path d="M0 0 C0.66 0.33 1.32 0.66 2 1 C0.8905928 4.48670834 -0.26337666 7.77484237 -2 11 C-2.66 11 -3.32 11 -4 11 C-3.48964169 6.6109185 -2.47785723 3.66291938 0 0 Z " fill="#CCB67B" transform="translate(373,144)"/>
<path d="M0 0 C2.4375 0.75 2.4375 0.75 5 2 C5.8125 4.125 5.8125 4.125 6 6 C4.35 5.67 2.7 5.34 1 5 C0.67 3.35 0.34 1.7 0 0 Z " fill="#7E6A46" transform="translate(147,270)"/>
<path d="M0 0 C1.33332095 2.6666419 0.67102033 4.16680303 0 7 C-0.66 7 -1.32 7 -2 7 C-2 7.99 -2 8.98 -2 10 C-2.66 10 -3.32 10 -4 10 C-4.33 10.66 -4.66 11.32 -5 12 C-5 10.68 -5 9.36 -5 8 C-4.34 8 -3.68 8 -3 8 C-2.87625 7.236875 -2.7525 6.47375 -2.625 5.6875 C-2 3 -2 3 0 0 Z " fill="#3E3320" transform="translate(417,126)"/>
<path d="M0 0 C-1.31224548 3.93673644 -2.91910327 6.22719294 -6 9 C-6.8125 7.3125 -6.8125 7.3125 -7 5 C-2.79545455 0 -2.79545455 0 0 0 Z " fill="#B59E6A" transform="translate(133,120)"/>
<path d="M0 0 C4.571279 0.54855348 8.67435795 1.41744803 13 3 C9.17022458 4.37871915 5.92010499 3.87113444 2 3 C1.34 2.01 0.68 1.02 0 0 Z " fill="#705E3F" transform="translate(169,282)"/>
<path d="M0 0 C-4.74963401 3.68096635 -8.00708997 4.58669586 -14 5 C-11.75043698 2.75043698 -9.93676737 1.99489035 -7 0.8125 C-6.113125 0.44769531 -5.22625 0.08289063 -4.3125 -0.29296875 C-2 -1 -2 -1 0 0 Z " fill="#2F2314" transform="translate(237,283)"/>
<path d="M0 0 C0.33 0 0.66 0 1 0 C1 1.65 1 3.3 1 5 C1.66 5 2.32 5 3 5 C3.33 7.97 3.66 10.94 4 14 C3.34 13.67 2.68 13.34 2 13 C1.11328125 10.3125 1.11328125 10.3125 0.3125 7 C0.04050781 5.906875 -0.23148437 4.81375 -0.51171875 3.6875 C-0.67285156 2.800625 -0.83398438 1.91375 -1 1 C-0.67 0.67 -0.34 0.34 0 0 Z " fill="#A29164" transform="translate(306,227)"/>
<path d="M0 0 C0.66 0 1.32 0 2 0 C0.88059018 4.85077588 -0.1334716 7.777893 -4 11 C-3.49357808 6.64477147 -2.61588503 3.55760365 0 0 Z " fill="#D0B57C" transform="translate(343,208)"/>
<path d="M0 0 C0.99 0.33 1.98 0.66 3 1 C3.66 0.67 4.32 0.34 5 0 C4.67 2.97 4.34 5.94 4 9 C0.68987756 5.68987756 0.49648935 4.46840411 0 0 Z " fill="#BBA671" transform="translate(291,192)"/>
<path d="M0 0 C-2.64 1.98 -5.28 3.96 -8 6 C-8.66 5.34 -9.32 4.68 -10 4 C-4.5 -1.125 -4.5 -1.125 0 0 Z " fill="#A88F5F" transform="translate(153,105)"/>
<path d="M0 0 C5.37305699 -0.35233161 5.37305699 -0.35233161 8 0 C10 2 10 2 11 4 C7.0507432 3.44894091 3.65079826 2.61064629 0 1 C0 0.67 0 0.34 0 0 Z " fill="#88724D" transform="translate(212,96)"/>
<path d="M0 0 C5.53846154 -0.36923077 5.53846154 -0.36923077 7.875 1.5 C8.24625 1.995 8.6175 2.49 9 3 C4.25 4.125 4.25 4.125 2 3 C2 2.34 2 1.68 2 1 C1.34 0.67 0.68 0.34 0 0 Z " fill="#9D8457" transform="translate(161,281)"/>
<path d="M0 0 C3.45390549 2.66892697 4.12452998 5.84151743 5 10 C4.625 12.4375 4.625 12.4375 4 14 C4 13.01 4 12.02 4 11 C3.34 11 2.68 11 2 11 C0.80712589 7.12315913 0 4.08378077 0 0 Z " fill="#3C2F1C" transform="translate(321,275)"/>
<path d="M0 0 C0.66 0.99 1.32 1.98 2 3 C1.25 5.625 1.25 5.625 0 8 C-0.99 8.495 -0.99 8.495 -2 9 C-2.25 3.375 -2.25 3.375 0 0 Z " fill="#9A8459" transform="translate(346,270)"/>
<path d="M0 0 C0.66 0.33 1.32 0.66 2 1 C0.35 4.3 -1.3 7.6 -3 11 C-4.35439668 8.29120665 -4.06501451 5.99066732 -4 3 C-3.01 3 -2.02 3 -1 3 C-0.67 2.01 -0.34 1.02 0 0 Z " fill="#A29064" transform="translate(378,206)"/>
<path d="M0 0 C1.0326802 2.78823655 1.04509293 3.8677274 0.0625 6.75 C-0.288125 7.4925 -0.63875 8.235 -1 9 C-1.66 9 -2.32 9 -3 9 C-3 9.99 -3 10.98 -3 12 C-3.66 12 -4.32 12 -5 12 C-4.67 10.02 -4.34 8.04 -4 6 C-3.34 6 -2.68 6 -2 6 C-1.34 4.02 -0.68 2.04 0 0 Z " fill="#A29066" transform="translate(348,194)"/>
<path d="M0 0 C0.93045933 2.55144824 1.08564091 3.74006478 0.22265625 6.359375 C-0.16019531 7.14828125 -0.54304688 7.9371875 -0.9375 8.75 C-1.50791016 9.94882813 -1.50791016 9.94882813 -2.08984375 11.171875 C-2.39019531 11.77515625 -2.69054687 12.3784375 -3 13 C-3.66 13 -4.32 13 -5 13 C-3.78184562 8.31479085 -2.30440013 4.29456388 0 0 Z " fill="#4D3F29" transform="translate(408,144)"/>
<path d="M0 0 C0.66 0.33 1.32 0.66 2 1 C1.01 2.32 0.02 3.64 -1 5 C-0.67 3.35 -0.34 1.7 0 0 Z M-4 5 C-3.01 5.33 -2.02 5.66 -1 6 C-2.3125 8.5 -2.3125 8.5 -4 11 C-4.99 11 -5.98 11 -7 11 C-6 9 -5 7 -4 5 Z " fill="#BDA770" transform="translate(96,128)"/>
<path d="M0 0 C0 3.29657856 -0.74333269 5.16364428 -2 8.1875 C-2.37125 9.08855469 -2.7425 9.98960938 -3.125 10.91796875 C-3.41375 11.60503906 -3.7025 12.29210937 -4 13 C-5.39460991 10.21078018 -4.58060045 8.87922897 -3.6875 5.9375 C-3.42324219 5.03902344 -3.15898437 4.14054687 -2.88671875 3.21484375 C-2 1 -2 1 0 0 Z " fill="#342A19" transform="translate(393,95)"/>
<path d="M0 0 C3.63 0 7.26 0 11 0 C10.67 1.98 10.34 3.96 10 6 C9.34 6 8.68 6 8 6 C8.33 4.35 8.66 2.7 9 1 C6.03 1 3.06 1 0 1 C0 0.67 0 0.34 0 0 Z " fill="#A58E5B" transform="translate(420,91)"/>
<path d="M0 0 C0.33 0.66 0.66 1.32 1 2 C1.66 2 2.32 2 3 2 C3 3.65 3 5.3 3 7 C3.66 7 4.32 7 5 7 C5.33 8.98 5.66 10.96 6 13 C4 11.375 4 11.375 2 9 C1.75 5.75 1.75 5.75 2 3 C1.34 3 0.68 3 0 3 C0 2.01 0 1.02 0 0 Z " fill="#352D1C" transform="translate(286,161)"/>
<path d="M0 0 C0.33 1.32 0.66 2.64 1 4 C0.01 4.33 -0.98 4.66 -2 5 C-2.73323796 7.01508358 -2.73323796 7.01508358 -3 9 C-3.99 9 -4.98 9 -6 9 C-4.68775452 5.06326356 -3.08089673 2.77280706 0 0 Z " fill="#99855D" transform="translate(98,124)"/>
<path d="M0 0 C0 0.33 0 0.66 0 1 C-1.95603851 1.52938657 -3.91492289 2.04826801 -5.875 2.5625 C-6.96554688 2.85253906 -8.05609375 3.14257812 -9.1796875 3.44140625 C-12 4 -12 4 -14 3 C-8.99067246 -0.00559652 -5.67276511 -0.29341888 0 0 Z " fill="#2D2516" transform="translate(159,87)"/>
<path d="M0 0 C3.55780196 0.60990891 6.6828589 1.5783681 10 3 C10 3.66 10 4.32 10 5 C2.42857143 3.14285714 2.42857143 3.14285714 0 0 Z " fill="#3C301C" transform="translate(153,274)"/>
<path d="M0 0 C2 1 2 1 2.88671875 2.99609375 C3.15097656 3.80175781 3.41523438 4.60742188 3.6875 5.4375 C3.95949219 6.24058594 4.23148437 7.04367187 4.51171875 7.87109375 C5 10 5 10 4 12 C1.24331998 8.04476345 0.4682121 4.77576339 0 0 Z " fill="#403420" transform="translate(316,263)"/>
<path d="M0 0 C0.66 0 1.32 0 2 0 C3.2890625 1.53125 3.2890625 1.53125 4.625 3.5 C5.07101563 4.1496875 5.51703125 4.799375 5.9765625 5.46875 C6.31429687 5.9740625 6.65203125 6.479375 7 7 C6.67 7.66 6.34 8.32 6 9 C3.69 6.69 1.38 4.38 -1 2 C-0.67 1.34 -0.34 0.68 0 0 Z " fill="#9B8658" transform="translate(97,252)"/>
<path d="M0 0 C0.33 0 0.66 0 1 0 C1.125 3.375 1.125 3.375 1 7 C0.34 7.66 -0.32 8.32 -1 9 C-1 8.34 -1 7.68 -1 7 C-1.66 7 -2.32 7 -3 7 C-1.125 1.125 -1.125 1.125 0 0 Z " fill="#B4A06D" transform="translate(85,144)"/>
<path d="M0 0 C1.98 0.66 3.96 1.32 6 2 C6 2.66 6 3.32 6 4 C6.99 4.33 7.98 4.66 9 5 C5.79937313 6.60031344 3.27728194 5.03173691 0 4 C0 2.68 0 1.36 0 0 Z " fill="#80724D" transform="translate(230,96)"/>
<path d="M0 0 C3.37503669 1.1858237 5.64722731 2.27573689 8 5 C7.01 5.495 7.01 5.495 6 6 C3.28564404 5.06694014 2.21956837 4.37326623 0.75 1.875 C0.5025 1.25625 0.255 0.6375 0 0 Z " fill="#9A8358" transform="translate(106,263)"/>
<path d="M0 0 C0.33 0 0.66 0 1 0 C0.67 2.31 0.34 4.62 0 7 C-0.99 7 -1.98 7 -3 7 C-1.125 1.125 -1.125 1.125 0 0 Z " fill="#CDB57A" transform="translate(406,141)"/>
<path d="M0 0 C0 3.99904969 -1.72586967 5.80200422 -4 9 C-5.37245106 6.25509788 -4.93580311 4.87939419 -4 2 C-1.9375 0.6875 -1.9375 0.6875 0 0 Z " fill="#8C7A54" transform="translate(125,132)"/>
<path d="M0 0 C1.4540625 0.0309375 1.4540625 0.0309375 2.9375 0.0625 C-1.8125 4.9375 -1.8125 4.9375 -4.0625 6.0625 C-4.105221 4.39638095 -4.10313832 2.72867115 -4.0625 1.0625 C-3.0625 0.0625 -3.0625 0.0625 0 0 Z " fill="#86724A" transform="translate(144.0625,109.9375)"/>
<path d="M0 0 C0.75 1.5625 0.75 1.5625 1 4 C-0.13084437 6.50286409 -1.52139516 8.67007722 -3 11 C-3.75 9.4375 -3.75 9.4375 -4 7 C-2.86915563 4.49713591 -1.47860484 2.32992278 0 0 Z " fill="#231A0E" transform="translate(346,279)"/>
<path d="M0 0 C0.66 0.99 1.32 1.98 2 3 C0.02 5.97 0.02 5.97 -2 9 C-2.33 7.68 -2.66 6.36 -3 5 C-2.34 5 -1.68 5 -1 5 C-0.67 3.35 -0.34 1.7 0 0 Z " fill="#DAC081" transform="translate(348,198)"/>
<path d="M0 0 C0.33 0 0.66 0 1 0 C0.67 3.3 0.34 6.6 0 10 C-0.66 9.34 -1.32 8.68 -2 8 C-1.42307692 1.42307692 -1.42307692 1.42307692 0 0 Z " fill="#C7AC76" transform="translate(116,142)"/>
<path d="M0 0 C1.33332095 2.6666419 0.67102033 4.16680303 0 7 C-0.66 7 -1.32 7 -2 7 C-2 7.66 -2 8.32 -2 9 C-2.66 9 -3.32 9 -4 9 C-2.80100302 5.9168649 -1.52299523 2.93720508 0 0 Z " fill="#9A895A" transform="translate(383,120)"/>
<path d="M0 0 C0.33 0.66 0.66 1.32 1 2 C0.06553465 4.03144641 -0.93224776 6.03533587 -2 8 C-2.33 8 -2.66 8 -3 8 C-3.1875 5.125 -3.1875 5.125 -3 2 C-2.01 1.34 -1.02 0.68 0 0 Z " fill="#352C1A" transform="translate(332,226)"/>
<path d="M0 0 C1.0326802 2.78823655 1.04509293 3.8677274 0.0625 6.75 C-0.288125 7.4925 -0.63875 8.235 -1 9 C-1.66 9 -2.32 9 -3 9 C-2.69181644 7.68647977 -2.37832335 6.37420428 -2.0625 5.0625 C-1.88847656 4.33160156 -1.71445312 3.60070312 -1.53515625 2.84765625 C-1 1 -1 1 0 0 Z " fill="#594E33" transform="translate(392,178)"/>
<path d="M0 0 C0.33 0 0.66 0 1 0 C1.125 5.75 1.125 5.75 0 8 C-0.66 8 -1.32 8 -2 8 C-2.20086443 4.28400809 -2.1519437 3.22791555 0 0 Z " fill="#DEC88A" transform="translate(390,175)"/>
</svg>
